%
M48
M72
T01C0.0240
T02C0.0276
T03C0.0315
T04C0.0360
T05C0.0394
T06C0.0400
T07C0.1300
%
T01
X17680Y12095
X18960Y12370
X19570Y13650
X16853Y15658
X15948Y15500
X17700Y16878
X18074Y16209
X18467Y16544
X21282Y19615
X22385Y20048
X13408Y20205
X20928Y10973
X18625Y10363
T02
X18160Y12882
X17160Y12882
X23160Y20819
X24160Y20819
X24180Y23418
X23180Y23418
X23180Y25870
X24180Y25870
T03
X23912Y19154
X23912Y18367
X23912Y17579
X23912Y16792
X23912Y16004
X23912Y15217
X23912Y14430
X23912Y13642
X23912Y12855
X23912Y12067
X15251Y12067
X15251Y12855
X15251Y13642
X15251Y14430
X15251Y15217
X15251Y16004
X15251Y16792
X15251Y17579
X15251Y18367
X15251Y19154
T04
X13987Y17020
X13987Y14020
T05
X12704Y9130
X12704Y10130
X12704Y11130
X12704Y12130
X12704Y13130
X12704Y14130
X12704Y15130
X12704Y16130
X12704Y17130
X12704Y18130
X12704Y19130
X12704Y20130
X12704Y21130
X12704Y22130
X12704Y23130
X12704Y24130
X12704Y25130
X12704Y26130
X12704Y27130
X12704Y28130
X14554Y28004
X15341Y28004
X16129Y28004
X18290Y28004
X19078Y28004
X19865Y28004
X21704Y28130
X21704Y27130
X21704Y26130
X21704Y25130
X21704Y24130
X21704Y23130
X21704Y22130
X21704Y21130
X21704Y20130
X21704Y19130
X21704Y18130
X21704Y17130
X21704Y16130
X21704Y15130
X21704Y14130
X21704Y13130
X21704Y12130
X21704Y11130
X21704Y10130
X23239Y9839
X21704Y9130
X23239Y8839
X20105Y8658
X19105Y8658
X18105Y8658
X18105Y9721
X19105Y9721
X20105Y9721
X20105Y10784
X19105Y10784
X18105Y10784
X16444Y10784
X15444Y10784
X14444Y10784
X14444Y9721
X15444Y9721
X16444Y9721
X16444Y8658
X15444Y8658
X14444Y8658
X14444Y7595
X15444Y7595
X16444Y7595
X18105Y7595
X19105Y7595
X20105Y7595
X17645Y15028
X16645Y15028
X16129Y22359
X15341Y22359
X14554Y22359
X14554Y24241
X15341Y24241
X16129Y24241
X18290Y24241
X19078Y24241
X19865Y24241
X19865Y26122
X19078Y26122
X18290Y26122
X16129Y26122
X15341Y26122
X14554Y26122
X18290Y22359
X19078Y22359
X19865Y22359
T06
X21267Y7650
X22267Y7650
X23267Y7650
T07
X22267Y1750
M30
