G75*
G70*
%OFA0B0*%
%FSLAX24Y24*%
%IPPOS*%
%LPD*%
%AMOC8*
5,1,8,0,0,1.08239X$1,22.5*
%
%ADD10C,0.0780*%
%ADD11R,0.0300X0.0600*%
%ADD12OC8,0.0640*%
%ADD13R,0.0730X0.0730*%
%ADD14C,0.0730*%
%ADD15C,0.0595*%
%ADD16R,0.0674X0.0674*%
%ADD17R,0.0592X0.0671*%
%ADD18C,0.0680*%
%ADD19C,0.1380*%
%ADD20C,0.0480*%
D10*
X012704Y009130D03*
X012704Y010130D03*
X012704Y011130D03*
X012704Y012130D03*
X012704Y013130D03*
X012704Y014130D03*
X012704Y015130D03*
X012704Y016130D03*
X012704Y017130D03*
X012704Y018130D03*
X012704Y019130D03*
X012704Y020130D03*
X012704Y021130D03*
X012704Y022130D03*
X012704Y023130D03*
X012704Y024130D03*
X012704Y025130D03*
X012704Y026130D03*
X012704Y027130D03*
X012704Y028130D03*
X021704Y028130D03*
X021704Y027130D03*
X021704Y026130D03*
X021704Y025130D03*
X021704Y024130D03*
X021704Y023130D03*
X021704Y022130D03*
X021704Y021130D03*
X021704Y020130D03*
X021704Y019130D03*
X021704Y018130D03*
X021704Y017130D03*
X021704Y016130D03*
X021704Y015130D03*
X021704Y014130D03*
X021704Y013130D03*
X021704Y012130D03*
X021704Y011130D03*
X021704Y010130D03*
X023239Y009839D03*
X021704Y009130D03*
X023239Y008839D03*
X020105Y008658D03*
X019105Y008658D03*
X018105Y008658D03*
X018105Y009721D03*
X019105Y009721D03*
X020105Y009721D03*
X020105Y010784D03*
X019105Y010784D03*
X018105Y010784D03*
X016444Y010784D03*
X015444Y010784D03*
X014444Y010784D03*
X014444Y009721D03*
X015444Y009721D03*
X016444Y009721D03*
X016444Y008658D03*
X015444Y008658D03*
X014444Y008658D03*
X014444Y007595D03*
X015444Y007595D03*
X016444Y007595D03*
X018105Y007595D03*
X019105Y007595D03*
X020105Y007595D03*
X017645Y015028D03*
X016645Y015028D03*
D11*
X016936Y016271D03*
X017676Y016271D03*
X017306Y017211D03*
D12*
X013987Y017020D03*
X013987Y014020D03*
D13*
X017160Y012882D03*
X024160Y020819D03*
X024180Y023418D03*
X024180Y025870D03*
D14*
X023180Y025870D03*
X023180Y023418D03*
X023160Y020819D03*
X018160Y012882D03*
D15*
X015251Y012855D03*
X015251Y013642D03*
X015251Y014430D03*
X015251Y015217D03*
X015251Y016004D03*
X015251Y016792D03*
X015251Y017579D03*
X015251Y018367D03*
X015251Y019154D03*
X023912Y019154D03*
X023912Y018367D03*
X023912Y017579D03*
X023912Y016792D03*
X023912Y016004D03*
X023912Y015217D03*
X023912Y014430D03*
X023912Y013642D03*
X023912Y012855D03*
X023912Y012067D03*
X015251Y012067D03*
D16*
X015341Y022359D03*
X014554Y022359D03*
X016129Y022359D03*
X018290Y022359D03*
X019078Y022359D03*
X019865Y022359D03*
X019865Y024241D03*
X019078Y024241D03*
X018290Y024241D03*
X016129Y024241D03*
X015341Y024241D03*
X014554Y024241D03*
X014554Y026122D03*
X015341Y026122D03*
X016129Y026122D03*
X018290Y026122D03*
X019078Y026122D03*
X019865Y026122D03*
X019865Y028004D03*
X019078Y028004D03*
X018290Y028004D03*
X016129Y028004D03*
X015341Y028004D03*
X014554Y028004D03*
D17*
X020003Y020087D03*
X020751Y020087D03*
X020751Y019142D03*
X020003Y019142D03*
X020003Y018079D03*
X020751Y018079D03*
X020751Y017134D03*
X020003Y017134D03*
X020003Y016189D03*
X020751Y016189D03*
X020751Y015126D03*
X020003Y015126D03*
X020003Y014181D03*
X020751Y014181D03*
X020751Y013119D03*
X020003Y013119D03*
D18*
X021267Y007950D02*
X021267Y007350D01*
X022267Y007350D02*
X022267Y007950D01*
X023267Y007950D02*
X023267Y007350D01*
D19*
X022267Y001750D03*
D20*
X018625Y010363D03*
X017680Y012095D03*
X018960Y012370D03*
X019570Y013650D03*
X016853Y015658D03*
X015948Y015500D03*
X017700Y016878D03*
X018074Y016209D03*
X018467Y016544D03*
X021282Y019615D03*
X022385Y020048D03*
X013408Y020205D03*
X020928Y010973D03*
M02*
