G75*
G70*
%OFA0B0*%
%FSLAX24Y24*%
%IPPOS*%
%LPD*%
%AMOC8*
5,1,8,0,0,1.08239X$1,22.5*
%
%ADD10C,0.0060*%
%ADD11C,0.0020*%
%ADD12C,0.0080*%
%ADD13C,0.0160*%
%ADD14C,0.0050*%
%ADD15C,0.0010*%
%ADD16C,0.0040*%
%ADD17C,0.0070*%
%ADD18R,0.0500X0.0350*%
D10*
X012204Y008880D02*
X012204Y009380D01*
X012454Y009630D01*
X012954Y009630D01*
X013204Y009380D01*
X013204Y008880D01*
X012954Y008630D01*
X012454Y008630D01*
X012204Y008880D01*
X012454Y009630D02*
X012204Y009880D01*
X012204Y010380D01*
X012454Y010630D01*
X012204Y010880D01*
X012204Y011380D01*
X012454Y011630D01*
X012204Y011880D01*
X012204Y012380D01*
X012454Y012630D01*
X012204Y012880D01*
X012204Y013380D01*
X012454Y013630D01*
X012204Y013880D01*
X012204Y014380D01*
X012454Y014630D01*
X012204Y014880D01*
X012204Y015380D01*
X012454Y015630D01*
X012204Y015880D01*
X012204Y016380D01*
X012454Y016630D01*
X012204Y016880D01*
X012204Y017380D01*
X012454Y017630D01*
X012204Y017880D01*
X012204Y018380D01*
X012454Y018630D01*
X012954Y018630D01*
X013204Y018380D01*
X013204Y017880D01*
X012954Y017630D01*
X013204Y017380D01*
X013204Y016880D01*
X012954Y016630D01*
X012454Y016630D01*
X012954Y016630D02*
X013204Y016380D01*
X013204Y015880D01*
X012954Y015630D01*
X013204Y015380D01*
X013204Y014880D01*
X012954Y014630D01*
X013204Y014380D01*
X013204Y013880D01*
X012954Y013630D01*
X013204Y013380D01*
X013204Y012880D01*
X012954Y012630D01*
X013204Y012380D01*
X013204Y011880D01*
X012954Y011630D01*
X013204Y011380D01*
X013204Y010880D01*
X012954Y010630D01*
X013204Y010380D01*
X013204Y009880D01*
X012954Y009630D01*
X012454Y009630D01*
X012454Y010630D02*
X012954Y010630D01*
X013944Y010534D02*
X014194Y010284D01*
X014694Y010284D01*
X014944Y010534D01*
X015194Y010284D01*
X015694Y010284D01*
X015944Y010534D01*
X015944Y011034D01*
X015694Y011284D01*
X015194Y011284D01*
X014944Y011034D01*
X014944Y010534D01*
X015194Y010221D02*
X015694Y010221D01*
X015944Y009971D01*
X015944Y009471D01*
X015694Y009221D01*
X015194Y009221D01*
X014944Y009471D01*
X014694Y009221D01*
X014194Y009221D01*
X013944Y009471D01*
X013944Y009971D01*
X014194Y010221D01*
X014694Y010221D01*
X014944Y009971D01*
X015194Y010221D01*
X014944Y009971D02*
X014944Y009471D01*
X015194Y009158D02*
X014944Y008908D01*
X014944Y008408D01*
X015194Y008158D01*
X015694Y008158D01*
X015944Y008408D01*
X015944Y008908D01*
X015694Y009158D01*
X015194Y009158D01*
X014944Y008908D02*
X014694Y009158D01*
X014194Y009158D01*
X013944Y008908D01*
X013944Y008408D01*
X014194Y008158D01*
X014694Y008158D01*
X014944Y008408D01*
X015194Y008095D02*
X015694Y008095D01*
X015944Y007845D01*
X015944Y007345D01*
X015694Y007095D01*
X015194Y007095D01*
X014944Y007345D01*
X014694Y007095D01*
X014194Y007095D01*
X013944Y007345D01*
X013944Y007845D01*
X014194Y008095D01*
X014694Y008095D01*
X014944Y007845D01*
X015194Y008095D01*
X014944Y007845D02*
X014944Y007345D01*
X015944Y007345D02*
X016194Y007095D01*
X016694Y007095D01*
X016944Y007345D01*
X016944Y007845D01*
X016694Y008095D01*
X016194Y008095D01*
X015944Y007845D01*
X016194Y008158D02*
X015944Y008408D01*
X016194Y008158D02*
X016694Y008158D01*
X016944Y008408D01*
X016944Y008908D01*
X016694Y009158D01*
X016194Y009158D01*
X015944Y008908D01*
X016194Y009221D02*
X015944Y009471D01*
X016194Y009221D02*
X016694Y009221D01*
X016944Y009471D01*
X016944Y009971D01*
X016694Y010221D01*
X016194Y010221D01*
X015944Y009971D01*
X016194Y010284D02*
X015944Y010534D01*
X016194Y010284D02*
X016694Y010284D01*
X016944Y010534D01*
X016944Y011034D01*
X016694Y011284D01*
X016194Y011284D01*
X015944Y011034D01*
X014944Y011034D02*
X014694Y011284D01*
X014194Y011284D01*
X013944Y011034D01*
X013944Y010534D01*
X012954Y011630D02*
X012454Y011630D01*
X012454Y012630D02*
X012954Y012630D01*
X012954Y013630D02*
X012454Y013630D01*
X013387Y013620D02*
X013387Y017420D01*
X013389Y017437D01*
X013393Y017454D01*
X013400Y017470D01*
X013410Y017484D01*
X013423Y017497D01*
X013437Y017507D01*
X013453Y017514D01*
X013470Y017518D01*
X013487Y017520D01*
X014487Y017520D01*
X014504Y017518D01*
X014521Y017514D01*
X014537Y017507D01*
X014551Y017497D01*
X014564Y017484D01*
X014574Y017470D01*
X014581Y017454D01*
X014585Y017437D01*
X014587Y017420D01*
X014587Y013620D01*
X014585Y013603D01*
X014581Y013586D01*
X014574Y013570D01*
X014564Y013556D01*
X014551Y013543D01*
X014537Y013533D01*
X014521Y013526D01*
X014504Y013522D01*
X014487Y013520D01*
X013487Y013520D01*
X013470Y013522D01*
X013453Y013526D01*
X013437Y013533D01*
X013423Y013543D01*
X013410Y013556D01*
X013400Y013570D01*
X013393Y013586D01*
X013389Y013603D01*
X013387Y013620D01*
X013987Y014520D02*
X013987Y015320D01*
X013987Y015720D02*
X013987Y016520D01*
X012954Y015630D02*
X012454Y015630D01*
X012454Y014630D02*
X012954Y014630D01*
X016145Y014778D02*
X016395Y014528D01*
X016895Y014528D01*
X017145Y014778D01*
X017395Y014528D01*
X017895Y014528D01*
X018145Y014778D01*
X018145Y015278D01*
X017895Y015528D01*
X017395Y015528D01*
X017145Y015278D01*
X017145Y014778D01*
X017145Y015278D02*
X016895Y015528D01*
X016395Y015528D01*
X016145Y015278D01*
X016145Y014778D01*
X017176Y016391D02*
X017436Y016391D01*
X017916Y016561D02*
X017916Y017091D01*
X017546Y017091D01*
X017066Y017091D02*
X016696Y017091D01*
X016696Y016561D01*
X013204Y018880D02*
X012954Y018630D01*
X012454Y018630D01*
X012204Y018880D01*
X012204Y019380D01*
X012454Y019630D01*
X012954Y019630D01*
X013204Y019380D01*
X013204Y018880D01*
X012954Y019630D02*
X012454Y019630D01*
X012204Y019880D01*
X012204Y020380D01*
X012454Y020630D01*
X012204Y020880D01*
X012204Y021380D01*
X012454Y021630D01*
X012204Y021880D01*
X012204Y022380D01*
X012454Y022630D01*
X012204Y022880D01*
X012204Y023380D01*
X012454Y023630D01*
X012204Y023880D01*
X012204Y024380D01*
X012454Y024630D01*
X012204Y024880D01*
X012204Y025380D01*
X012454Y025630D01*
X012204Y025880D01*
X012204Y026380D01*
X012454Y026630D01*
X012204Y026880D01*
X012204Y027380D01*
X012454Y027630D01*
X012204Y027880D01*
X012204Y028380D01*
X012454Y028630D01*
X012954Y028630D01*
X013204Y028380D01*
X013204Y027880D01*
X012954Y027630D01*
X013204Y027380D01*
X013204Y026880D01*
X012954Y026630D01*
X012454Y026630D01*
X012954Y026630D02*
X013204Y026380D01*
X013204Y025880D01*
X012954Y025630D01*
X013204Y025380D01*
X013204Y024880D01*
X012954Y024630D01*
X013204Y024380D01*
X013204Y023880D01*
X012954Y023630D01*
X013204Y023380D01*
X013204Y022880D01*
X012954Y022630D01*
X013204Y022380D01*
X013204Y021880D01*
X012954Y021630D01*
X013204Y021380D01*
X013204Y020880D01*
X012954Y020630D01*
X013204Y020380D01*
X013204Y019880D01*
X012954Y019630D01*
X012954Y020630D02*
X012454Y020630D01*
X012454Y021630D02*
X012954Y021630D01*
X012954Y022630D02*
X012454Y022630D01*
X012454Y023630D02*
X012954Y023630D01*
X012954Y024630D02*
X012454Y024630D01*
X012454Y025630D02*
X012954Y025630D01*
X012954Y027630D02*
X012454Y027630D01*
X021204Y027380D02*
X021204Y026880D01*
X021454Y026630D01*
X021954Y026630D01*
X022204Y026880D01*
X022204Y027380D01*
X021954Y027630D01*
X021454Y027630D01*
X021204Y027380D01*
X021454Y027630D02*
X021204Y027880D01*
X021204Y028380D01*
X021454Y028630D01*
X021954Y028630D01*
X022204Y028380D01*
X022204Y027880D01*
X021954Y027630D01*
X021954Y026630D02*
X022204Y026380D01*
X022204Y025880D01*
X021954Y025630D01*
X022204Y025380D01*
X022204Y024880D01*
X021954Y024630D01*
X022204Y024380D01*
X022204Y023880D01*
X021954Y023630D01*
X022204Y023380D01*
X022204Y022880D01*
X021954Y022630D01*
X022204Y022380D01*
X022204Y021880D01*
X021954Y021630D01*
X022204Y021380D01*
X022204Y020880D01*
X021954Y020630D01*
X022204Y020380D01*
X022204Y019880D01*
X021954Y019630D01*
X022204Y019380D01*
X022204Y018880D01*
X021954Y018630D01*
X022204Y018380D01*
X022204Y017880D01*
X021954Y017630D01*
X022204Y017380D01*
X022204Y016880D01*
X021954Y016630D01*
X021454Y016630D01*
X021204Y016880D01*
X021204Y017380D01*
X021454Y017630D01*
X021204Y017880D01*
X021204Y018380D01*
X021454Y018630D01*
X021954Y018630D01*
X021454Y018630D01*
X021204Y018880D01*
X021204Y019380D01*
X021454Y019630D01*
X021954Y019630D01*
X021454Y019630D01*
X021204Y019880D01*
X021204Y020380D01*
X021454Y020630D01*
X021204Y020880D01*
X021204Y021380D01*
X021454Y021630D01*
X021204Y021880D01*
X021204Y022380D01*
X021454Y022630D01*
X021204Y022880D01*
X021204Y023380D01*
X021454Y023630D01*
X021204Y023880D01*
X021204Y024380D01*
X021454Y024630D01*
X021204Y024880D01*
X021204Y025380D01*
X021454Y025630D01*
X021204Y025880D01*
X021204Y026380D01*
X021454Y026630D01*
X021454Y025630D02*
X021954Y025630D01*
X021954Y024630D02*
X021454Y024630D01*
X021454Y023630D02*
X021954Y023630D01*
X021954Y022630D02*
X021454Y022630D01*
X021454Y021630D02*
X021954Y021630D01*
X021954Y020630D02*
X021454Y020630D01*
X021454Y017630D02*
X021954Y017630D01*
X021954Y016630D02*
X022204Y016380D01*
X022204Y015880D01*
X021954Y015630D01*
X022204Y015380D01*
X022204Y014880D01*
X021954Y014630D01*
X022204Y014380D01*
X022204Y013880D01*
X021954Y013630D01*
X022204Y013380D01*
X022204Y012880D01*
X021954Y012630D01*
X022204Y012380D01*
X022204Y011880D01*
X021954Y011630D01*
X022204Y011380D01*
X022204Y010880D01*
X021954Y010630D01*
X022204Y010380D01*
X022204Y009880D01*
X021954Y009630D01*
X022204Y009380D01*
X022204Y008880D01*
X021954Y008630D01*
X021454Y008630D01*
X021204Y008880D01*
X021204Y009380D01*
X021454Y009630D01*
X021954Y009630D01*
X021454Y009630D01*
X021204Y009880D01*
X021204Y010380D01*
X021454Y010630D01*
X021204Y010880D01*
X021204Y011380D01*
X021454Y011630D01*
X021204Y011880D01*
X021204Y012380D01*
X021454Y012630D01*
X021204Y012880D01*
X021204Y013380D01*
X021454Y013630D01*
X021204Y013880D01*
X021204Y014380D01*
X021454Y014630D01*
X021204Y014880D01*
X021204Y015380D01*
X021454Y015630D01*
X021204Y015880D01*
X021204Y016380D01*
X021454Y016630D01*
X021454Y015630D02*
X021954Y015630D01*
X021954Y014630D02*
X021454Y014630D01*
X021454Y013630D02*
X021954Y013630D01*
X021954Y012630D02*
X021454Y012630D01*
X021454Y011630D02*
X021954Y011630D01*
X020605Y011034D02*
X020605Y010534D01*
X020355Y010284D01*
X019855Y010284D01*
X019605Y010534D01*
X019355Y010284D01*
X018855Y010284D01*
X018605Y010534D01*
X018355Y010284D01*
X017855Y010284D01*
X017605Y010534D01*
X017605Y011034D01*
X017855Y011284D01*
X018355Y011284D01*
X018605Y011034D01*
X018855Y011284D01*
X019355Y011284D01*
X019605Y011034D01*
X019605Y010534D01*
X019355Y010221D02*
X018855Y010221D01*
X018605Y009971D01*
X018605Y009471D01*
X018855Y009221D01*
X019355Y009221D01*
X019605Y009471D01*
X019605Y009971D01*
X019355Y010221D01*
X019605Y009971D02*
X019855Y010221D01*
X020355Y010221D01*
X020605Y009971D01*
X020605Y009471D01*
X020355Y009221D01*
X019855Y009221D01*
X019605Y009471D01*
X019355Y009158D02*
X018855Y009158D01*
X018605Y008908D01*
X018605Y008408D01*
X018855Y008158D01*
X019355Y008158D01*
X019605Y008408D01*
X019605Y008908D01*
X019355Y009158D01*
X019605Y008908D02*
X019855Y009158D01*
X020355Y009158D01*
X020605Y008908D01*
X020605Y008408D01*
X020355Y008158D01*
X019855Y008158D01*
X019605Y008408D01*
X019355Y008095D02*
X018855Y008095D01*
X018605Y007845D01*
X018605Y007345D01*
X018855Y007095D01*
X019355Y007095D01*
X019605Y007345D01*
X019605Y007845D01*
X019355Y008095D01*
X019605Y007845D02*
X019855Y008095D01*
X020355Y008095D01*
X020605Y007845D01*
X020605Y007345D01*
X020355Y007095D01*
X019855Y007095D01*
X019605Y007345D01*
X018605Y007345D02*
X018355Y007095D01*
X017855Y007095D01*
X017605Y007345D01*
X017605Y007845D01*
X017855Y008095D01*
X018355Y008095D01*
X018605Y007845D01*
X018355Y008158D02*
X017855Y008158D01*
X017605Y008408D01*
X017605Y008908D01*
X017855Y009158D01*
X018355Y009158D01*
X018605Y008908D01*
X018355Y009221D02*
X017855Y009221D01*
X017605Y009471D01*
X017605Y009971D01*
X017855Y010221D01*
X018355Y010221D01*
X018605Y009971D01*
X018605Y009471D02*
X018355Y009221D01*
X018605Y008408D02*
X018355Y008158D01*
X020217Y006650D02*
X020217Y001750D01*
X020567Y001750D01*
X020567Y001150D01*
X020217Y001150D01*
X020217Y000400D01*
X024317Y000400D01*
X024317Y001150D01*
X023967Y001150D01*
X023967Y001750D01*
X024317Y001750D01*
X024317Y006650D01*
X020217Y006650D01*
X022739Y008589D02*
X022739Y009089D01*
X022989Y009339D01*
X022739Y009589D01*
X022739Y010089D01*
X022989Y010339D01*
X023489Y010339D01*
X023739Y010089D01*
X023739Y009589D01*
X023489Y009339D01*
X023739Y009089D01*
X023739Y008589D01*
X023489Y008339D01*
X022989Y008339D01*
X022739Y008589D01*
X022989Y009339D02*
X023489Y009339D01*
X021954Y010630D02*
X021454Y010630D01*
X020605Y011034D02*
X020355Y011284D01*
X019855Y011284D01*
X019605Y011034D01*
X018605Y011034D02*
X018605Y010534D01*
X012954Y017630D02*
X012454Y017630D01*
X021557Y001750D02*
X021559Y001803D01*
X021565Y001856D01*
X021575Y001908D01*
X021589Y001959D01*
X021606Y002009D01*
X021627Y002058D01*
X021652Y002105D01*
X021680Y002150D01*
X021712Y002193D01*
X021747Y002233D01*
X021784Y002270D01*
X021824Y002305D01*
X021867Y002337D01*
X021912Y002365D01*
X021959Y002390D01*
X022008Y002411D01*
X022058Y002428D01*
X022109Y002442D01*
X022161Y002452D01*
X022214Y002458D01*
X022267Y002460D01*
X022320Y002458D01*
X022373Y002452D01*
X022425Y002442D01*
X022476Y002428D01*
X022526Y002411D01*
X022575Y002390D01*
X022622Y002365D01*
X022667Y002337D01*
X022710Y002305D01*
X022750Y002270D01*
X022787Y002233D01*
X022822Y002193D01*
X022854Y002150D01*
X022882Y002105D01*
X022907Y002058D01*
X022928Y002009D01*
X022945Y001959D01*
X022959Y001908D01*
X022969Y001856D01*
X022975Y001803D01*
X022977Y001750D01*
X022975Y001697D01*
X022969Y001644D01*
X022959Y001592D01*
X022945Y001541D01*
X022928Y001491D01*
X022907Y001442D01*
X022882Y001395D01*
X022854Y001350D01*
X022822Y001307D01*
X022787Y001267D01*
X022750Y001230D01*
X022710Y001195D01*
X022667Y001163D01*
X022622Y001135D01*
X022575Y001110D01*
X022526Y001089D01*
X022476Y001072D01*
X022425Y001058D01*
X022373Y001048D01*
X022320Y001042D01*
X022267Y001040D01*
X022214Y001042D01*
X022161Y001048D01*
X022109Y001058D01*
X022058Y001072D01*
X022008Y001089D01*
X021959Y001110D01*
X021912Y001135D01*
X021867Y001163D01*
X021824Y001195D01*
X021784Y001230D01*
X021747Y001267D01*
X021712Y001307D01*
X021680Y001350D01*
X021652Y001395D01*
X021627Y001442D01*
X021606Y001491D01*
X021589Y001541D01*
X021575Y001592D01*
X021565Y001644D01*
X021559Y001697D01*
X021557Y001750D01*
D11*
X020467Y003150D02*
X024067Y003150D01*
X024067Y006400D01*
X020467Y006400D01*
X020467Y003150D01*
X019185Y008175D02*
X019139Y008175D01*
X019115Y008198D01*
X019115Y008222D01*
X019139Y008245D01*
X019185Y008245D01*
X019209Y008222D01*
X019209Y008198D01*
X019185Y008175D01*
X019185Y008245D02*
X019209Y008268D01*
X019209Y008292D01*
X019185Y008315D01*
X019139Y008315D01*
X019115Y008292D01*
X019115Y008268D01*
X019139Y008245D01*
X019061Y008245D02*
X019038Y008222D01*
X018968Y008222D01*
X018968Y008175D02*
X018968Y008315D01*
X019038Y008315D01*
X019061Y008292D01*
X019061Y008245D01*
X019139Y009238D02*
X019185Y009238D01*
X019209Y009261D01*
X019209Y009285D01*
X019185Y009308D01*
X019115Y009308D01*
X019115Y009261D01*
X019139Y009238D01*
X019115Y009308D02*
X019162Y009355D01*
X019209Y009378D01*
X019061Y009355D02*
X019061Y009308D01*
X019038Y009285D01*
X018968Y009285D01*
X018968Y009238D02*
X018968Y009378D01*
X019038Y009378D01*
X019061Y009355D01*
X018968Y010301D02*
X018968Y010441D01*
X019038Y010441D01*
X019061Y010418D01*
X019061Y010371D01*
X019038Y010348D01*
X018968Y010348D01*
X019115Y010371D02*
X019209Y010371D01*
X019185Y010441D02*
X019115Y010371D01*
X019185Y010301D02*
X019185Y010441D01*
X019209Y011364D02*
X019115Y011364D01*
X019209Y011457D01*
X019209Y011481D01*
X019185Y011504D01*
X019139Y011504D01*
X019115Y011481D01*
X019061Y011481D02*
X019061Y011434D01*
X019038Y011411D01*
X018968Y011411D01*
X018968Y011364D02*
X018968Y011504D01*
X019038Y011504D01*
X019061Y011481D01*
X015547Y011364D02*
X015454Y011364D01*
X015500Y011364D02*
X015500Y011504D01*
X015454Y011457D01*
X015400Y011434D02*
X015377Y011411D01*
X015306Y011411D01*
X015306Y011364D02*
X015306Y011504D01*
X015377Y011504D01*
X015400Y011481D01*
X015400Y011434D01*
X015377Y010441D02*
X015400Y010418D01*
X015400Y010371D01*
X015377Y010348D01*
X015306Y010348D01*
X015306Y010301D02*
X015306Y010441D01*
X015377Y010441D01*
X015454Y010418D02*
X015477Y010441D01*
X015524Y010441D01*
X015547Y010418D01*
X015547Y010394D01*
X015524Y010371D01*
X015547Y010348D01*
X015547Y010324D01*
X015524Y010301D01*
X015477Y010301D01*
X015454Y010324D01*
X015500Y010371D02*
X015524Y010371D01*
X015547Y009378D02*
X015454Y009378D01*
X015454Y009308D01*
X015500Y009331D01*
X015524Y009331D01*
X015547Y009308D01*
X015547Y009261D01*
X015524Y009238D01*
X015477Y009238D01*
X015454Y009261D01*
X015400Y009308D02*
X015377Y009285D01*
X015306Y009285D01*
X015306Y009238D02*
X015306Y009378D01*
X015377Y009378D01*
X015400Y009355D01*
X015400Y009308D01*
X015377Y008315D02*
X015400Y008292D01*
X015400Y008245D01*
X015377Y008222D01*
X015306Y008222D01*
X015306Y008175D02*
X015306Y008315D01*
X015377Y008315D01*
X015454Y008315D02*
X015547Y008315D01*
X015547Y008292D01*
X015454Y008198D01*
X015454Y008175D01*
X023819Y008686D02*
X023819Y008756D01*
X023842Y008779D01*
X023889Y008779D01*
X023912Y008756D01*
X023912Y008686D01*
X023959Y008686D02*
X023819Y008686D01*
X023819Y008833D02*
X023959Y008833D01*
X023912Y008880D01*
X023959Y008927D01*
X023819Y008927D01*
X023819Y008981D02*
X023866Y009027D01*
X023819Y009074D01*
X023959Y009074D01*
X023982Y009128D02*
X023982Y009221D01*
X023959Y009322D02*
X023819Y009322D01*
X023819Y009275D02*
X023819Y009369D01*
X023842Y009423D02*
X023936Y009423D01*
X023959Y009446D01*
X023959Y009493D01*
X023936Y009516D01*
X023842Y009516D01*
X023819Y009493D01*
X023819Y009446D01*
X023842Y009423D01*
X023982Y009570D02*
X023982Y009663D01*
X023912Y009717D02*
X023959Y009764D01*
X023912Y009811D01*
X023819Y009811D01*
X023889Y009865D02*
X023889Y009958D01*
X023842Y009911D02*
X023936Y009911D01*
X023912Y009717D02*
X023819Y009717D01*
X023819Y008981D02*
X023959Y008981D01*
X017703Y015608D02*
X017657Y015608D01*
X017633Y015631D01*
X017583Y015631D02*
X017583Y015608D01*
X017560Y015608D01*
X017560Y015631D01*
X017583Y015631D01*
X017506Y015631D02*
X017482Y015608D01*
X017436Y015608D01*
X017412Y015631D01*
X017459Y015678D02*
X017482Y015678D01*
X017506Y015655D01*
X017506Y015631D01*
X017482Y015678D02*
X017506Y015701D01*
X017506Y015725D01*
X017482Y015748D01*
X017436Y015748D01*
X017412Y015725D01*
X017358Y015585D02*
X017265Y015585D01*
X017211Y015631D02*
X017211Y015725D01*
X017188Y015748D01*
X017141Y015748D01*
X017118Y015725D01*
X017118Y015631D01*
X017141Y015608D01*
X017188Y015608D01*
X017211Y015631D01*
X017064Y015748D02*
X016970Y015748D01*
X017017Y015748D02*
X017017Y015608D01*
X016916Y015585D02*
X016823Y015585D01*
X016769Y015608D02*
X016769Y015748D01*
X016722Y015701D01*
X016676Y015748D01*
X016676Y015608D01*
X016622Y015631D02*
X016598Y015608D01*
X016552Y015608D01*
X016528Y015631D01*
X016528Y015725D01*
X016552Y015748D01*
X016598Y015748D01*
X016622Y015725D01*
X017633Y015725D02*
X017657Y015748D01*
X017703Y015748D01*
X017727Y015725D01*
X017727Y015701D01*
X017703Y015678D01*
X017727Y015655D01*
X017727Y015631D01*
X017703Y015608D01*
X017703Y015678D02*
X017680Y015678D01*
X013400Y023698D02*
X013424Y023722D01*
X013424Y023768D01*
X013400Y023792D01*
X013307Y023792D01*
X013284Y023768D01*
X013284Y023722D01*
X013307Y023698D01*
X013400Y023698D01*
X013377Y023846D02*
X013377Y023916D01*
X013354Y023939D01*
X013307Y023939D01*
X013284Y023916D01*
X013284Y023846D01*
X013424Y023846D01*
X013424Y023993D02*
X013424Y024086D01*
X013424Y024140D02*
X013284Y024140D01*
X013424Y024234D01*
X013284Y024234D01*
X013307Y024288D02*
X013400Y024288D01*
X013424Y024311D01*
X013424Y024358D01*
X013400Y024381D01*
X013424Y024435D02*
X013284Y024435D01*
X013330Y024482D01*
X013284Y024528D01*
X013424Y024528D01*
X013307Y024381D02*
X013284Y024358D01*
X013284Y024311D01*
X013307Y024288D01*
X013284Y024086D02*
X013284Y023993D01*
X013424Y023993D01*
X013354Y023993D02*
X013354Y024040D01*
D12*
X017308Y021683D02*
X021855Y021683D01*
X024345Y019193D01*
X024345Y010896D01*
X014818Y010896D01*
X014818Y019193D01*
X017308Y021683D01*
X017310Y018471D02*
X017186Y018348D01*
X017186Y017854D01*
X017310Y017731D01*
X017556Y017731D01*
X017680Y017854D01*
X017680Y018101D01*
X017433Y018101D01*
X017680Y018348D02*
X017556Y018471D01*
X017310Y018471D01*
X016925Y018471D02*
X016431Y018471D01*
X016431Y017731D01*
X016925Y017731D01*
X016678Y018101D02*
X016431Y018101D01*
X016170Y018101D02*
X016046Y017977D01*
X015676Y017977D01*
X015676Y017731D02*
X015676Y018471D01*
X016046Y018471D01*
X016170Y018348D01*
X016170Y018101D01*
X015923Y017977D02*
X016170Y017731D01*
X016676Y012882D02*
X016678Y012944D01*
X016684Y013007D01*
X016694Y013068D01*
X016708Y013129D01*
X016725Y013189D01*
X016746Y013248D01*
X016772Y013305D01*
X016800Y013360D01*
X016832Y013414D01*
X016868Y013465D01*
X016906Y013515D01*
X016948Y013561D01*
X016992Y013605D01*
X017040Y013646D01*
X017089Y013684D01*
X017141Y013718D01*
X017195Y013749D01*
X017251Y013777D01*
X017309Y013801D01*
X017368Y013822D01*
X017428Y013838D01*
X017489Y013851D01*
X017551Y013860D01*
X017613Y013865D01*
X017676Y013866D01*
X017738Y013863D01*
X017800Y013856D01*
X017862Y013845D01*
X017922Y013830D01*
X017982Y013812D01*
X018040Y013790D01*
X018097Y013764D01*
X018152Y013734D01*
X018205Y013701D01*
X018256Y013665D01*
X018304Y013626D01*
X018350Y013583D01*
X018393Y013538D01*
X018433Y013490D01*
X018470Y013440D01*
X018504Y013387D01*
X018535Y013333D01*
X018561Y013277D01*
X018585Y013219D01*
X018604Y013159D01*
X018620Y013099D01*
X018632Y013037D01*
X018640Y012976D01*
X018644Y012913D01*
X018644Y012851D01*
X018640Y012788D01*
X018632Y012727D01*
X018620Y012665D01*
X018604Y012605D01*
X018585Y012545D01*
X018561Y012487D01*
X018535Y012431D01*
X018504Y012377D01*
X018470Y012324D01*
X018433Y012274D01*
X018393Y012226D01*
X018350Y012181D01*
X018304Y012138D01*
X018256Y012099D01*
X018205Y012063D01*
X018152Y012030D01*
X018097Y012000D01*
X018040Y011974D01*
X017982Y011952D01*
X017922Y011934D01*
X017862Y011919D01*
X017800Y011908D01*
X017738Y011901D01*
X017676Y011898D01*
X017613Y011899D01*
X017551Y011904D01*
X017489Y011913D01*
X017428Y011926D01*
X017368Y011942D01*
X017309Y011963D01*
X017251Y011987D01*
X017195Y012015D01*
X017141Y012046D01*
X017089Y012080D01*
X017040Y012118D01*
X016992Y012159D01*
X016948Y012203D01*
X016906Y012249D01*
X016868Y012299D01*
X016832Y012350D01*
X016800Y012404D01*
X016772Y012459D01*
X016746Y012516D01*
X016725Y012575D01*
X016708Y012635D01*
X016694Y012696D01*
X016684Y012757D01*
X016678Y012820D01*
X016676Y012882D01*
X017960Y012332D02*
X018360Y012332D01*
X022676Y020819D02*
X022678Y020881D01*
X022684Y020944D01*
X022694Y021005D01*
X022708Y021066D01*
X022725Y021126D01*
X022746Y021185D01*
X022772Y021242D01*
X022800Y021297D01*
X022832Y021351D01*
X022868Y021402D01*
X022906Y021452D01*
X022948Y021498D01*
X022992Y021542D01*
X023040Y021583D01*
X023089Y021621D01*
X023141Y021655D01*
X023195Y021686D01*
X023251Y021714D01*
X023309Y021738D01*
X023368Y021759D01*
X023428Y021775D01*
X023489Y021788D01*
X023551Y021797D01*
X023613Y021802D01*
X023676Y021803D01*
X023738Y021800D01*
X023800Y021793D01*
X023862Y021782D01*
X023922Y021767D01*
X023982Y021749D01*
X024040Y021727D01*
X024097Y021701D01*
X024152Y021671D01*
X024205Y021638D01*
X024256Y021602D01*
X024304Y021563D01*
X024350Y021520D01*
X024393Y021475D01*
X024433Y021427D01*
X024470Y021377D01*
X024504Y021324D01*
X024535Y021270D01*
X024561Y021214D01*
X024585Y021156D01*
X024604Y021096D01*
X024620Y021036D01*
X024632Y020974D01*
X024640Y020913D01*
X024644Y020850D01*
X024644Y020788D01*
X024640Y020725D01*
X024632Y020664D01*
X024620Y020602D01*
X024604Y020542D01*
X024585Y020482D01*
X024561Y020424D01*
X024535Y020368D01*
X024504Y020314D01*
X024470Y020261D01*
X024433Y020211D01*
X024393Y020163D01*
X024350Y020118D01*
X024304Y020075D01*
X024256Y020036D01*
X024205Y020000D01*
X024152Y019967D01*
X024097Y019937D01*
X024040Y019911D01*
X023982Y019889D01*
X023922Y019871D01*
X023862Y019856D01*
X023800Y019845D01*
X023738Y019838D01*
X023676Y019835D01*
X023613Y019836D01*
X023551Y019841D01*
X023489Y019850D01*
X023428Y019863D01*
X023368Y019879D01*
X023309Y019900D01*
X023251Y019924D01*
X023195Y019952D01*
X023141Y019983D01*
X023089Y020017D01*
X023040Y020055D01*
X022992Y020096D01*
X022948Y020140D01*
X022906Y020186D01*
X022868Y020236D01*
X022832Y020287D01*
X022800Y020341D01*
X022772Y020396D01*
X022746Y020453D01*
X022725Y020512D01*
X022708Y020572D01*
X022694Y020633D01*
X022684Y020694D01*
X022678Y020757D01*
X022676Y020819D01*
X022960Y021369D02*
X023360Y021369D01*
X022696Y023418D02*
X022698Y023480D01*
X022704Y023543D01*
X022714Y023604D01*
X022728Y023665D01*
X022745Y023725D01*
X022766Y023784D01*
X022792Y023841D01*
X022820Y023896D01*
X022852Y023950D01*
X022888Y024001D01*
X022926Y024051D01*
X022968Y024097D01*
X023012Y024141D01*
X023060Y024182D01*
X023109Y024220D01*
X023161Y024254D01*
X023215Y024285D01*
X023271Y024313D01*
X023329Y024337D01*
X023388Y024358D01*
X023448Y024374D01*
X023509Y024387D01*
X023571Y024396D01*
X023633Y024401D01*
X023696Y024402D01*
X023758Y024399D01*
X023820Y024392D01*
X023882Y024381D01*
X023942Y024366D01*
X024002Y024348D01*
X024060Y024326D01*
X024117Y024300D01*
X024172Y024270D01*
X024225Y024237D01*
X024276Y024201D01*
X024324Y024162D01*
X024370Y024119D01*
X024413Y024074D01*
X024453Y024026D01*
X024490Y023976D01*
X024524Y023923D01*
X024555Y023869D01*
X024581Y023813D01*
X024605Y023755D01*
X024624Y023695D01*
X024640Y023635D01*
X024652Y023573D01*
X024660Y023512D01*
X024664Y023449D01*
X024664Y023387D01*
X024660Y023324D01*
X024652Y023263D01*
X024640Y023201D01*
X024624Y023141D01*
X024605Y023081D01*
X024581Y023023D01*
X024555Y022967D01*
X024524Y022913D01*
X024490Y022860D01*
X024453Y022810D01*
X024413Y022762D01*
X024370Y022717D01*
X024324Y022674D01*
X024276Y022635D01*
X024225Y022599D01*
X024172Y022566D01*
X024117Y022536D01*
X024060Y022510D01*
X024002Y022488D01*
X023942Y022470D01*
X023882Y022455D01*
X023820Y022444D01*
X023758Y022437D01*
X023696Y022434D01*
X023633Y022435D01*
X023571Y022440D01*
X023509Y022449D01*
X023448Y022462D01*
X023388Y022478D01*
X023329Y022499D01*
X023271Y022523D01*
X023215Y022551D01*
X023161Y022582D01*
X023109Y022616D01*
X023060Y022654D01*
X023012Y022695D01*
X022968Y022739D01*
X022926Y022785D01*
X022888Y022835D01*
X022852Y022886D01*
X022820Y022940D01*
X022792Y022995D01*
X022766Y023052D01*
X022745Y023111D01*
X022728Y023171D01*
X022714Y023232D01*
X022704Y023293D01*
X022698Y023356D01*
X022696Y023418D01*
X022980Y023968D02*
X023380Y023968D01*
X022696Y025870D02*
X022698Y025932D01*
X022704Y025995D01*
X022714Y026056D01*
X022728Y026117D01*
X022745Y026177D01*
X022766Y026236D01*
X022792Y026293D01*
X022820Y026348D01*
X022852Y026402D01*
X022888Y026453D01*
X022926Y026503D01*
X022968Y026549D01*
X023012Y026593D01*
X023060Y026634D01*
X023109Y026672D01*
X023161Y026706D01*
X023215Y026737D01*
X023271Y026765D01*
X023329Y026789D01*
X023388Y026810D01*
X023448Y026826D01*
X023509Y026839D01*
X023571Y026848D01*
X023633Y026853D01*
X023696Y026854D01*
X023758Y026851D01*
X023820Y026844D01*
X023882Y026833D01*
X023942Y026818D01*
X024002Y026800D01*
X024060Y026778D01*
X024117Y026752D01*
X024172Y026722D01*
X024225Y026689D01*
X024276Y026653D01*
X024324Y026614D01*
X024370Y026571D01*
X024413Y026526D01*
X024453Y026478D01*
X024490Y026428D01*
X024524Y026375D01*
X024555Y026321D01*
X024581Y026265D01*
X024605Y026207D01*
X024624Y026147D01*
X024640Y026087D01*
X024652Y026025D01*
X024660Y025964D01*
X024664Y025901D01*
X024664Y025839D01*
X024660Y025776D01*
X024652Y025715D01*
X024640Y025653D01*
X024624Y025593D01*
X024605Y025533D01*
X024581Y025475D01*
X024555Y025419D01*
X024524Y025365D01*
X024490Y025312D01*
X024453Y025262D01*
X024413Y025214D01*
X024370Y025169D01*
X024324Y025126D01*
X024276Y025087D01*
X024225Y025051D01*
X024172Y025018D01*
X024117Y024988D01*
X024060Y024962D01*
X024002Y024940D01*
X023942Y024922D01*
X023882Y024907D01*
X023820Y024896D01*
X023758Y024889D01*
X023696Y024886D01*
X023633Y024887D01*
X023571Y024892D01*
X023509Y024901D01*
X023448Y024914D01*
X023388Y024930D01*
X023329Y024951D01*
X023271Y024975D01*
X023215Y025003D01*
X023161Y025034D01*
X023109Y025068D01*
X023060Y025106D01*
X023012Y025147D01*
X022968Y025191D01*
X022926Y025237D01*
X022888Y025287D01*
X022852Y025338D01*
X022820Y025392D01*
X022792Y025447D01*
X022766Y025504D01*
X022745Y025563D01*
X022728Y025623D01*
X022714Y025684D01*
X022704Y025745D01*
X022698Y025808D01*
X022696Y025870D01*
X022980Y026420D02*
X023380Y026420D01*
D13*
X014337Y015720D02*
X013987Y015720D01*
X013637Y015720D01*
X013637Y015320D02*
X013987Y015320D01*
X014337Y015320D01*
D14*
X013212Y014406D02*
X013212Y014105D01*
X013212Y014256D02*
X012762Y014256D01*
X012912Y014105D01*
X012837Y013945D02*
X012762Y013870D01*
X012762Y013720D01*
X012837Y013645D01*
X013137Y013645D01*
X013212Y013720D01*
X013212Y013870D01*
X013137Y013945D01*
X013963Y021374D02*
X016759Y021374D01*
X016759Y022949D01*
X013963Y022949D01*
X013963Y021374D01*
X013963Y023256D02*
X016759Y023256D01*
X016759Y024831D01*
X013963Y024831D01*
X013963Y023256D01*
X013963Y025138D02*
X016759Y025138D01*
X016759Y026713D01*
X013963Y026713D01*
X013963Y025138D01*
X013963Y027020D02*
X016759Y027020D01*
X016759Y028595D01*
X013963Y028595D01*
X013963Y027020D01*
X017700Y027020D02*
X020495Y027020D01*
X020495Y028595D01*
X017700Y028595D01*
X017700Y027020D01*
X017700Y026713D02*
X017700Y025138D01*
X020495Y025138D01*
X020495Y026713D01*
X017700Y026713D01*
X017700Y024831D02*
X017700Y023256D01*
X020495Y023256D01*
X020495Y024831D01*
X017700Y024831D01*
X017700Y022949D02*
X017700Y021374D01*
X020495Y021374D01*
X020495Y022949D01*
X017700Y022949D01*
D15*
X023335Y024048D02*
X023360Y024023D01*
X023410Y024023D01*
X023435Y024048D01*
X023482Y024048D02*
X023507Y024023D01*
X023557Y024023D01*
X023582Y024048D01*
X023582Y024073D01*
X023557Y024098D01*
X023482Y024098D01*
X023482Y024048D01*
X023482Y024098D02*
X023532Y024148D01*
X023582Y024173D01*
X023435Y024148D02*
X023410Y024173D01*
X023360Y024173D01*
X023335Y024148D01*
X023335Y024048D01*
X023360Y026475D02*
X023410Y026475D01*
X023435Y026500D01*
X023482Y026551D02*
X023582Y026551D01*
X023557Y026626D02*
X023482Y026551D01*
X023435Y026601D02*
X023410Y026626D01*
X023360Y026626D01*
X023335Y026601D01*
X023335Y026500D01*
X023360Y026475D01*
X023557Y026475D02*
X023557Y026626D01*
X023538Y021574D02*
X023563Y021549D01*
X023563Y021524D01*
X023538Y021499D01*
X023488Y021499D01*
X023463Y021524D01*
X023463Y021549D01*
X023488Y021574D01*
X023538Y021574D01*
X023538Y021499D02*
X023563Y021474D01*
X023563Y021449D01*
X023538Y021424D01*
X023488Y021424D01*
X023463Y021449D01*
X023463Y021474D01*
X023488Y021499D01*
X023415Y021449D02*
X023390Y021424D01*
X023340Y021424D01*
X023315Y021449D01*
X023315Y021549D01*
X023340Y021574D01*
X023390Y021574D01*
X023415Y021549D01*
X017943Y012277D02*
X017893Y012277D01*
X017868Y012252D01*
X017821Y012252D02*
X017796Y012277D01*
X017746Y012277D01*
X017721Y012252D01*
X017721Y012152D01*
X017746Y012127D01*
X017796Y012127D01*
X017821Y012152D01*
X017868Y012127D02*
X017968Y012227D01*
X017968Y012252D01*
X017943Y012277D01*
X017968Y012127D02*
X017868Y012127D01*
D16*
X016329Y021131D02*
X016022Y021131D01*
X016176Y021131D02*
X016176Y021591D01*
X016022Y021438D01*
X015869Y021438D02*
X015792Y021361D01*
X015562Y021361D01*
X015562Y021131D02*
X015562Y021591D01*
X015792Y021591D01*
X015869Y021514D01*
X015869Y021438D01*
X015792Y021361D02*
X015869Y021284D01*
X015869Y021207D01*
X015792Y021131D01*
X015562Y021131D01*
X015409Y021131D02*
X015102Y021591D01*
X015409Y021591D02*
X015102Y021131D01*
X021759Y003030D02*
X021643Y002914D01*
X021643Y002680D01*
X021643Y002855D02*
X021876Y002855D01*
X021876Y002914D02*
X021876Y002680D01*
X022002Y002680D02*
X022235Y002680D01*
X022118Y002680D02*
X022118Y003030D01*
X022002Y002914D01*
X021876Y002914D02*
X021759Y003030D01*
X022361Y003030D02*
X022361Y002855D01*
X022478Y002914D01*
X022536Y002914D01*
X022594Y002855D01*
X022594Y002738D01*
X022536Y002680D01*
X022419Y002680D01*
X022361Y002738D01*
X022361Y003030D02*
X022594Y003030D01*
X022778Y002738D02*
X022778Y002680D01*
X022837Y002680D01*
X022837Y002738D01*
X022778Y002738D01*
X022837Y002680D02*
X022720Y002563D01*
X022959Y002680D02*
X023193Y002914D01*
X023193Y002972D01*
X023134Y003030D01*
X023018Y003030D01*
X022959Y002972D01*
X022959Y002680D02*
X023193Y002680D01*
X023318Y002680D02*
X023318Y002914D01*
X023377Y002914D01*
X023435Y002855D01*
X023494Y002914D01*
X023552Y002855D01*
X023552Y002680D01*
X023435Y002680D02*
X023435Y002855D01*
X023678Y002914D02*
X023736Y002914D01*
X023794Y002855D01*
X023853Y002914D01*
X023911Y002855D01*
X023911Y002680D01*
X023794Y002680D02*
X023794Y002855D01*
X023678Y002914D02*
X023678Y002680D01*
D17*
X023577Y003485D02*
X023157Y003485D01*
X023367Y003485D02*
X023367Y004116D01*
X023157Y003905D01*
X022933Y004010D02*
X022828Y004116D01*
X022618Y004116D01*
X022513Y004010D01*
X022513Y003590D01*
X022618Y003485D01*
X022828Y003485D01*
X022933Y003590D01*
X022293Y003485D02*
X022083Y003485D01*
X022188Y003485D02*
X022188Y004116D01*
X022083Y004116D02*
X022293Y004116D01*
D18*
X022267Y006825D03*
X023267Y006825D03*
X021267Y006825D03*
M02*
