G75*
G70*
%OFA0B0*%
%FSLAX24Y24*%
%IPPOS*%
%LPD*%
%AMOC8*
5,1,8,0,0,1.08239X$1,22.5*
%
%ADD10C,0.0000*%
%ADD11C,0.0700*%
%ADD12R,0.0220X0.0520*%
%ADD13OC8,0.0560*%
%ADD14R,0.0650X0.0650*%
%ADD15C,0.0650*%
%ADD16C,0.0515*%
%ADD17R,0.0594X0.0594*%
%ADD18R,0.0512X0.0591*%
%ADD19C,0.0600*%
%ADD20C,0.0400*%
%ADD21C,0.0400*%
%ADD22C,0.0160*%
%ADD23C,0.0100*%
D10*
X011637Y006859D02*
X011637Y028890D01*
X024952Y028890D01*
X024952Y006859D01*
X011637Y006859D01*
X021617Y001750D02*
X021619Y001800D01*
X021625Y001850D01*
X021635Y001900D01*
X021648Y001948D01*
X021665Y001996D01*
X021686Y002042D01*
X021710Y002086D01*
X021738Y002128D01*
X021769Y002168D01*
X021803Y002205D01*
X021840Y002240D01*
X021879Y002271D01*
X021920Y002300D01*
X021964Y002325D01*
X022010Y002347D01*
X022057Y002365D01*
X022105Y002379D01*
X022154Y002390D01*
X022204Y002397D01*
X022254Y002400D01*
X022305Y002399D01*
X022355Y002394D01*
X022405Y002385D01*
X022453Y002373D01*
X022501Y002356D01*
X022547Y002336D01*
X022592Y002313D01*
X022635Y002286D01*
X022675Y002256D01*
X022713Y002223D01*
X022748Y002187D01*
X022781Y002148D01*
X022810Y002107D01*
X022836Y002064D01*
X022859Y002019D01*
X022878Y001972D01*
X022893Y001924D01*
X022905Y001875D01*
X022913Y001825D01*
X022917Y001775D01*
X022917Y001725D01*
X022913Y001675D01*
X022905Y001625D01*
X022893Y001576D01*
X022878Y001528D01*
X022859Y001481D01*
X022836Y001436D01*
X022810Y001393D01*
X022781Y001352D01*
X022748Y001313D01*
X022713Y001277D01*
X022675Y001244D01*
X022635Y001214D01*
X022592Y001187D01*
X022547Y001164D01*
X022501Y001144D01*
X022453Y001127D01*
X022405Y001115D01*
X022355Y001106D01*
X022305Y001101D01*
X022254Y001100D01*
X022204Y001103D01*
X022154Y001110D01*
X022105Y001121D01*
X022057Y001135D01*
X022010Y001153D01*
X021964Y001175D01*
X021920Y001200D01*
X021879Y001229D01*
X021840Y001260D01*
X021803Y001295D01*
X021769Y001332D01*
X021738Y001372D01*
X021710Y001414D01*
X021686Y001458D01*
X021665Y001504D01*
X021648Y001552D01*
X021635Y001600D01*
X021625Y001650D01*
X021619Y001700D01*
X021617Y001750D01*
D11*
X020105Y007595D03*
X019105Y007595D03*
X018105Y007595D03*
X018105Y008658D03*
X019105Y008658D03*
X020105Y008658D03*
X020105Y009721D03*
X019105Y009721D03*
X018105Y009721D03*
X018105Y010784D03*
X019105Y010784D03*
X020105Y010784D03*
X021704Y011130D03*
X021704Y010130D03*
X023239Y009839D03*
X021704Y009130D03*
X023239Y008839D03*
X021704Y012130D03*
X021704Y013130D03*
X021704Y014130D03*
X021704Y015130D03*
X021704Y016130D03*
X021704Y017130D03*
X021704Y018130D03*
X021704Y019130D03*
X021704Y020130D03*
X021704Y021130D03*
X021704Y022130D03*
X021704Y023130D03*
X021704Y024130D03*
X021704Y025130D03*
X021704Y026130D03*
X021704Y027130D03*
X021704Y028130D03*
X012704Y028130D03*
X012704Y027130D03*
X012704Y026130D03*
X012704Y025130D03*
X012704Y024130D03*
X012704Y023130D03*
X012704Y022130D03*
X012704Y021130D03*
X012704Y020130D03*
X012704Y019130D03*
X012704Y018130D03*
X012704Y017130D03*
X012704Y016130D03*
X012704Y015130D03*
X012704Y014130D03*
X012704Y013130D03*
X012704Y012130D03*
X012704Y011130D03*
X012704Y010130D03*
X012704Y009130D03*
X014444Y008658D03*
X015444Y008658D03*
X016444Y008658D03*
X016444Y009721D03*
X015444Y009721D03*
X014444Y009721D03*
X014444Y010784D03*
X015444Y010784D03*
X016444Y010784D03*
X016444Y007595D03*
X015444Y007595D03*
X014444Y007595D03*
X016645Y015028D03*
X017645Y015028D03*
D12*
X017676Y016271D03*
X016936Y016271D03*
X017306Y017211D03*
D13*
X013987Y017020D03*
X013987Y014020D03*
D14*
X017160Y012882D03*
X024160Y020819D03*
X024180Y023418D03*
X024180Y025870D03*
D15*
X023180Y025870D03*
X023180Y023418D03*
X023160Y020819D03*
X018160Y012882D03*
D16*
X015251Y012855D03*
X015251Y013642D03*
X015251Y014430D03*
X015251Y015217D03*
X015251Y016004D03*
X015251Y016792D03*
X015251Y017579D03*
X015251Y018367D03*
X015251Y019154D03*
X023912Y019154D03*
X023912Y018367D03*
X023912Y017579D03*
X023912Y016792D03*
X023912Y016004D03*
X023912Y015217D03*
X023912Y014430D03*
X023912Y013642D03*
X023912Y012855D03*
X023912Y012067D03*
X015251Y012067D03*
D17*
X015341Y022359D03*
X014554Y022359D03*
X016129Y022359D03*
X018290Y022359D03*
X019078Y022359D03*
X019865Y022359D03*
X019865Y024241D03*
X019078Y024241D03*
X018290Y024241D03*
X016129Y024241D03*
X015341Y024241D03*
X014554Y024241D03*
X014554Y026122D03*
X015341Y026122D03*
X016129Y026122D03*
X018290Y026122D03*
X019078Y026122D03*
X019865Y026122D03*
X019865Y028004D03*
X019078Y028004D03*
X018290Y028004D03*
X016129Y028004D03*
X015341Y028004D03*
X014554Y028004D03*
D18*
X020003Y020087D03*
X020751Y020087D03*
X020751Y019142D03*
X020003Y019142D03*
X020003Y018079D03*
X020751Y018079D03*
X020751Y017134D03*
X020003Y017134D03*
X020003Y016189D03*
X020751Y016189D03*
X020751Y015126D03*
X020003Y015126D03*
X020003Y014181D03*
X020751Y014181D03*
X020751Y013119D03*
X020003Y013119D03*
D19*
X021267Y007950D02*
X021267Y007350D01*
X022267Y007350D02*
X022267Y007950D01*
X023267Y007950D02*
X023267Y007350D01*
D20*
X023267Y007650D02*
X023251Y007666D01*
X023251Y008827D01*
X023239Y008839D01*
X023330Y009024D01*
X023881Y009575D01*
X023881Y011327D01*
X022877Y012331D01*
X022877Y020244D01*
X022542Y020579D01*
X022542Y024221D01*
X024176Y025855D01*
X024180Y025870D01*
X019078Y026122D02*
X019078Y024241D01*
X019078Y022359D01*
X019078Y022154D01*
X017739Y020815D01*
X017542Y020894D01*
X016597Y020894D01*
X015554Y021937D01*
X015554Y021996D01*
X015397Y022154D01*
X015341Y022359D01*
X015357Y022370D01*
X015357Y024044D01*
X015341Y024241D01*
X015357Y024241D01*
X015357Y026111D01*
X015341Y026122D01*
X015377Y026327D01*
X015377Y027981D01*
X015357Y028000D01*
X015341Y028004D01*
X014589Y027981D02*
X014589Y026327D01*
X014554Y026122D01*
X014570Y026111D01*
X014570Y025146D01*
X012719Y025146D01*
X012704Y025130D01*
X014570Y025146D02*
X014570Y024437D01*
X014554Y024241D01*
X014570Y024241D01*
X014570Y022370D01*
X014554Y022359D01*
X014609Y022154D01*
X014609Y022095D01*
X016007Y020697D01*
X014708Y019398D01*
X014708Y017843D01*
X014078Y017213D01*
X013987Y017020D01*
X013999Y017016D01*
X014708Y016307D01*
X014708Y011800D01*
X014845Y011662D01*
X015251Y012067D01*
X014845Y011662D02*
X014452Y011268D01*
X014452Y010796D01*
X014444Y010784D01*
X014432Y010579D01*
X014432Y009733D01*
X014444Y009721D01*
X014452Y009536D01*
X014452Y008847D01*
X014444Y008658D01*
X014452Y008650D01*
X014452Y007607D01*
X014444Y007595D01*
X015444Y007595D02*
X015456Y007607D01*
X015456Y008650D01*
X015444Y008658D01*
X015475Y008867D01*
X015475Y009693D01*
X015456Y009713D01*
X015444Y009721D01*
X015475Y009930D01*
X015475Y010756D01*
X015456Y010776D01*
X015444Y010784D01*
X018105Y010784D02*
X018172Y010973D01*
X018172Y012685D01*
X018160Y012882D01*
X018172Y012882D01*
X018290Y013000D01*
X018290Y015678D01*
X017503Y015678D01*
X017306Y015874D01*
X017306Y015894D01*
X017286Y015914D01*
X017286Y015933D01*
X016952Y016268D01*
X016936Y016271D01*
X016873Y016465D01*
X016617Y016721D01*
X016617Y020087D01*
X016007Y020697D01*
X017739Y020815D02*
X017739Y017646D01*
X017306Y017213D01*
X017306Y017211D01*
X013979Y014024D02*
X013408Y014595D01*
X013408Y020205D01*
X018290Y022359D02*
X018290Y024241D01*
X018290Y026122D01*
X018290Y028004D01*
X019078Y028004D02*
X019078Y026122D01*
X014589Y027981D02*
X014570Y028000D01*
X014554Y028004D01*
X022385Y020048D02*
X022385Y007784D01*
X022267Y007666D01*
X022267Y007650D01*
X021267Y007650D02*
X021263Y007666D01*
X020928Y008000D01*
X020928Y010973D01*
X019117Y010776D02*
X019117Y009949D01*
X019137Y009930D01*
X019105Y009721D01*
X019117Y009713D01*
X019137Y009693D01*
X019137Y008867D01*
X019105Y008658D01*
X019117Y008650D01*
X019117Y007607D01*
X019105Y007595D01*
X018113Y007607D02*
X018105Y007595D01*
X018113Y007607D02*
X018113Y008650D01*
X018105Y008658D01*
X018113Y008847D01*
X018113Y009713D01*
X018105Y009721D01*
X018113Y009910D01*
X018113Y010776D01*
X018105Y010784D01*
X019105Y010784D02*
X019117Y010776D01*
X013987Y014020D02*
X013979Y014024D01*
D21*
X015948Y015500D03*
X016853Y015658D03*
X018074Y016209D03*
X018467Y016544D03*
X017700Y016878D03*
X021282Y019615D03*
X022385Y020048D03*
X019570Y013650D03*
X018960Y012370D03*
X017680Y012095D03*
X018625Y010363D03*
X020928Y010973D03*
X013408Y020205D03*
D22*
X013743Y020337D02*
X017379Y020337D01*
X017379Y020179D02*
X013768Y020179D01*
X013768Y020277D02*
X013714Y020409D01*
X013612Y020510D01*
X013480Y020565D01*
X013337Y020565D01*
X013204Y020510D01*
X013125Y020431D01*
X012993Y020563D01*
X012829Y020630D01*
X012993Y020698D01*
X013136Y020841D01*
X013214Y021029D01*
X013214Y021232D01*
X013136Y021419D01*
X012993Y021563D01*
X012829Y021630D01*
X012993Y021698D01*
X013136Y021841D01*
X013214Y022029D01*
X013214Y022232D01*
X013136Y022419D01*
X012993Y022563D01*
X012829Y022630D01*
X012993Y022698D01*
X013136Y022841D01*
X013214Y023029D01*
X013214Y023232D01*
X013136Y023419D01*
X012993Y023563D01*
X012829Y023630D01*
X012993Y023698D01*
X013136Y023841D01*
X013214Y024029D01*
X013214Y024232D01*
X013136Y024419D01*
X012993Y024563D01*
X012851Y024621D01*
X012907Y024639D01*
X012981Y024677D01*
X013049Y024726D01*
X013108Y024785D01*
X013157Y024853D01*
X013195Y024927D01*
X013221Y025006D01*
X013234Y025089D01*
X013234Y025112D01*
X012722Y025112D01*
X012722Y025149D01*
X013234Y025149D01*
X013234Y025172D01*
X013221Y025254D01*
X013195Y025334D01*
X013157Y025408D01*
X013108Y025476D01*
X013049Y025535D01*
X012981Y025584D01*
X012907Y025621D01*
X012851Y025640D01*
X012993Y025698D01*
X013136Y025841D01*
X013214Y026029D01*
X013214Y026232D01*
X013136Y026419D01*
X012993Y026563D01*
X012829Y026630D01*
X012993Y026698D01*
X013136Y026841D01*
X013214Y027029D01*
X013214Y027232D01*
X013136Y027419D01*
X012993Y027563D01*
X012829Y027630D01*
X012993Y027698D01*
X013136Y027841D01*
X013214Y028029D01*
X013214Y028232D01*
X013140Y028410D01*
X014112Y028410D01*
X014089Y028371D01*
X014077Y028325D01*
X014077Y028023D01*
X014536Y028023D01*
X014536Y027986D01*
X014572Y027986D01*
X014572Y027527D01*
X014875Y027527D01*
X014920Y027540D01*
X014961Y027563D01*
X014962Y027564D01*
X014978Y027547D01*
X015017Y027547D01*
X015017Y026579D01*
X014978Y026579D01*
X014962Y026563D01*
X014961Y026563D01*
X014920Y026587D01*
X014875Y026599D01*
X014572Y026599D01*
X014572Y026141D01*
X014536Y026141D01*
X014536Y026599D01*
X014233Y026599D01*
X014188Y026587D01*
X014147Y026563D01*
X014113Y026530D01*
X014089Y026489D01*
X014077Y026443D01*
X014077Y026141D01*
X014536Y026141D01*
X014536Y026104D01*
X014572Y026104D01*
X014572Y025646D01*
X014875Y025646D01*
X014920Y025658D01*
X014961Y025682D01*
X014962Y025682D01*
X014978Y025666D01*
X014997Y025666D01*
X014997Y024697D01*
X014978Y024697D01*
X014962Y024681D01*
X014961Y024681D01*
X014920Y024705D01*
X014875Y024717D01*
X014572Y024717D01*
X014572Y024259D01*
X014536Y024259D01*
X014536Y024717D01*
X014233Y024717D01*
X014188Y024705D01*
X014147Y024681D01*
X014113Y024648D01*
X014089Y024607D01*
X014077Y024561D01*
X014077Y024259D01*
X014536Y024259D01*
X014536Y024222D01*
X014572Y024222D01*
X014572Y023764D01*
X014875Y023764D01*
X014920Y023776D01*
X014961Y023800D01*
X014962Y023800D01*
X014978Y023784D01*
X014997Y023784D01*
X014997Y022816D01*
X014978Y022816D01*
X014962Y022799D01*
X014961Y022800D01*
X014920Y022823D01*
X014875Y022836D01*
X014572Y022836D01*
X014572Y022377D01*
X014536Y022377D01*
X014536Y022836D01*
X014233Y022836D01*
X014188Y022823D01*
X014147Y022800D01*
X014113Y022766D01*
X014089Y022725D01*
X014077Y022679D01*
X014077Y022377D01*
X014536Y022377D01*
X014536Y022340D01*
X014572Y022340D01*
X014572Y021882D01*
X014875Y021882D01*
X014920Y021894D01*
X014961Y021918D01*
X014962Y021918D01*
X014978Y021902D01*
X015136Y021902D01*
X015155Y021878D01*
X015176Y021866D01*
X015207Y021834D01*
X015249Y021733D01*
X016292Y020690D01*
X016393Y020589D01*
X016526Y020534D01*
X017379Y020534D01*
X017379Y017795D01*
X017214Y017631D01*
X017130Y017631D01*
X017036Y017537D01*
X017036Y017452D01*
X017001Y017417D01*
X016946Y017285D01*
X016946Y017139D01*
X017001Y017007D01*
X017036Y016971D01*
X017036Y016884D01*
X017130Y016791D01*
X017346Y016791D01*
X017394Y016674D01*
X017439Y016630D01*
X017406Y016597D01*
X017406Y015944D01*
X017500Y015851D01*
X017852Y015851D01*
X017895Y015893D01*
X018002Y015849D01*
X018145Y015849D01*
X018278Y015904D01*
X018379Y016005D01*
X018434Y016137D01*
X018434Y016184D01*
X018539Y016184D01*
X018671Y016239D01*
X018773Y016340D01*
X018827Y016472D01*
X018827Y016607D01*
X019587Y017366D01*
X019587Y017015D01*
X018538Y015966D01*
X018415Y015843D01*
X018415Y013319D01*
X018354Y013350D01*
X018279Y013375D01*
X018200Y013387D01*
X018160Y013387D01*
X018121Y013387D01*
X018042Y013375D01*
X017966Y013350D01*
X017896Y013314D01*
X017831Y013267D01*
X017775Y013211D01*
X017728Y013147D01*
X017692Y013076D01*
X017668Y013001D01*
X017655Y012922D01*
X017655Y012882D01*
X017655Y012843D01*
X017668Y012764D01*
X017692Y012688D01*
X017728Y012618D01*
X017775Y012553D01*
X017831Y012497D01*
X017896Y012450D01*
X017966Y012414D01*
X018042Y012390D01*
X018121Y012377D01*
X018160Y012377D01*
X018160Y012882D01*
X017655Y012882D01*
X018160Y012882D01*
X018160Y012882D01*
X018160Y012882D01*
X018160Y012377D01*
X018200Y012377D01*
X018279Y012390D01*
X018354Y012414D01*
X018415Y012445D01*
X018415Y011214D01*
X018383Y011237D01*
X018309Y011275D01*
X018229Y011301D01*
X018147Y011314D01*
X018124Y011314D01*
X018124Y010802D01*
X018087Y010802D01*
X018087Y010765D01*
X018124Y010765D01*
X018124Y010254D01*
X018147Y010254D01*
X018229Y010267D01*
X018269Y010280D01*
X018296Y010216D01*
X018229Y010238D01*
X018147Y010251D01*
X018124Y010251D01*
X018124Y009739D01*
X018087Y009739D01*
X018087Y009702D01*
X018124Y009702D01*
X018124Y009191D01*
X018147Y009191D01*
X018229Y009204D01*
X018309Y009230D01*
X018383Y009268D01*
X018450Y009317D01*
X018509Y009376D01*
X018558Y009443D01*
X018596Y009517D01*
X018614Y009573D01*
X018673Y009432D01*
X018777Y009328D01*
X018777Y009051D01*
X018673Y008947D01*
X018614Y008806D01*
X018596Y008861D01*
X018558Y008936D01*
X018509Y009003D01*
X018450Y009062D01*
X018383Y009111D01*
X018309Y009149D01*
X018229Y009175D01*
X018147Y009188D01*
X018124Y009188D01*
X018124Y008676D01*
X018087Y008676D01*
X018087Y008639D01*
X018124Y008639D01*
X018124Y008128D01*
X018147Y008128D01*
X018229Y008141D01*
X018309Y008167D01*
X018383Y008205D01*
X018450Y008254D01*
X018509Y008313D01*
X018558Y008380D01*
X018596Y008454D01*
X018614Y008510D01*
X018673Y008369D01*
X018757Y008285D01*
X018757Y007968D01*
X018673Y007884D01*
X018614Y007743D01*
X018596Y007798D01*
X018558Y007873D01*
X018509Y007940D01*
X018450Y007999D01*
X018383Y008048D01*
X018309Y008086D01*
X018229Y008112D01*
X018147Y008125D01*
X018124Y008125D01*
X018124Y007613D01*
X018087Y007613D01*
X018087Y007576D01*
X017575Y007576D01*
X017575Y007553D01*
X017588Y007471D01*
X017614Y007391D01*
X017641Y007339D01*
X016890Y007339D01*
X016954Y007493D01*
X016954Y007696D01*
X016876Y007884D01*
X016733Y008027D01*
X016545Y008105D01*
X016342Y008105D01*
X016155Y008027D01*
X016011Y007884D01*
X015944Y007720D01*
X015876Y007884D01*
X015816Y007944D01*
X015816Y008308D01*
X015876Y008369D01*
X015944Y008532D01*
X016011Y008369D01*
X016155Y008226D01*
X016342Y008148D01*
X016545Y008148D01*
X016733Y008226D01*
X016876Y008369D01*
X016954Y008556D01*
X016954Y008759D01*
X016922Y008835D01*
X017142Y009055D01*
X017142Y011260D01*
X017617Y011735D01*
X017752Y011735D01*
X017884Y011790D01*
X017985Y011891D01*
X018040Y012023D01*
X018040Y012166D01*
X017985Y012299D01*
X017884Y012400D01*
X017752Y012455D01*
X017609Y012455D01*
X017645Y012491D01*
X017645Y013274D01*
X017552Y013367D01*
X017104Y013367D01*
X017339Y013602D01*
X017339Y014612D01*
X017356Y014596D01*
X017543Y014518D01*
X017746Y014518D01*
X017933Y014596D01*
X018077Y014739D01*
X018155Y014927D01*
X018155Y015129D01*
X018077Y015317D01*
X017933Y015460D01*
X017746Y015538D01*
X017543Y015538D01*
X017356Y015460D01*
X017339Y015443D01*
X017339Y015469D01*
X017216Y015592D01*
X017213Y015595D01*
X017213Y015729D01*
X017158Y015862D01*
X017155Y015865D01*
X017157Y015867D01*
X017190Y015900D01*
X017214Y015941D01*
X017226Y015987D01*
X017226Y016271D01*
X017226Y016554D01*
X017214Y016600D01*
X017190Y016641D01*
X017157Y016675D01*
X017115Y016698D01*
X017070Y016711D01*
X016936Y016711D01*
X016802Y016711D01*
X016757Y016698D01*
X016715Y016675D01*
X016682Y016641D01*
X016658Y016600D01*
X016646Y016554D01*
X016646Y016271D01*
X016936Y016271D01*
X016936Y016711D01*
X016936Y016271D01*
X016936Y016271D01*
X016936Y016271D01*
X017226Y016271D01*
X016936Y016271D01*
X016936Y016271D01*
X016646Y016271D01*
X016646Y015987D01*
X016652Y015964D01*
X016649Y015963D01*
X016548Y015862D01*
X016493Y015729D01*
X016493Y015586D01*
X016518Y015527D01*
X016492Y015517D01*
X016492Y018205D01*
X015656Y019042D01*
X015668Y019071D01*
X015668Y019237D01*
X015605Y019390D01*
X015487Y019508D01*
X015334Y019571D01*
X015168Y019571D01*
X015014Y019508D01*
X014897Y019390D01*
X014833Y019237D01*
X014833Y019071D01*
X014897Y018917D01*
X015014Y018800D01*
X015110Y018760D01*
X015014Y018720D01*
X014897Y018603D01*
X014833Y018450D01*
X014833Y018283D01*
X014897Y018130D01*
X015014Y018013D01*
X015110Y017973D01*
X015014Y017933D01*
X014897Y017816D01*
X014833Y017662D01*
X014833Y017496D01*
X014897Y017343D01*
X015014Y017225D01*
X015110Y017185D01*
X015014Y017146D01*
X014897Y017028D01*
X014833Y016875D01*
X014833Y016709D01*
X014897Y016555D01*
X015014Y016438D01*
X015110Y016398D01*
X015014Y016358D01*
X014897Y016241D01*
X014833Y016087D01*
X014833Y015921D01*
X014897Y015768D01*
X015014Y015650D01*
X015110Y015611D01*
X015014Y015571D01*
X014897Y015453D01*
X014833Y015300D01*
X014833Y015134D01*
X014897Y014980D01*
X015014Y014863D01*
X015110Y014823D01*
X015014Y014783D01*
X014897Y014666D01*
X014833Y014513D01*
X014833Y014346D01*
X014897Y014193D01*
X015014Y014076D01*
X015110Y014036D01*
X015014Y013996D01*
X014897Y013879D01*
X014833Y013725D01*
X014833Y013559D01*
X014897Y013406D01*
X015014Y013288D01*
X015110Y013248D01*
X015014Y013209D01*
X014897Y013091D01*
X014833Y012938D01*
X014833Y012772D01*
X014897Y012618D01*
X015014Y012501D01*
X015083Y012473D01*
X015022Y012441D01*
X014966Y012401D01*
X014917Y012352D01*
X014877Y012297D01*
X014845Y012235D01*
X014824Y012170D01*
X014813Y012102D01*
X014813Y012067D01*
X014813Y012033D01*
X014824Y011965D01*
X014845Y011899D01*
X014877Y011838D01*
X014917Y011782D01*
X014966Y011734D01*
X015022Y011693D01*
X015083Y011662D01*
X015148Y011641D01*
X015216Y011630D01*
X015251Y011630D01*
X015285Y011630D01*
X015353Y011641D01*
X015419Y011662D01*
X015480Y011693D01*
X015536Y011734D01*
X015585Y011782D01*
X015625Y011838D01*
X015656Y011899D01*
X015678Y011965D01*
X015688Y012033D01*
X015688Y012067D01*
X015251Y012067D01*
X015251Y011630D01*
X015251Y012067D01*
X015251Y012067D01*
X015251Y012067D01*
X014813Y012067D01*
X015251Y012067D01*
X015251Y012067D01*
X015688Y012067D01*
X015688Y012102D01*
X015678Y012170D01*
X015656Y012235D01*
X015625Y012297D01*
X015585Y012352D01*
X015536Y012401D01*
X015480Y012441D01*
X015419Y012473D01*
X015487Y012501D01*
X015605Y012618D01*
X015668Y012772D01*
X015668Y012938D01*
X015605Y013091D01*
X015487Y013209D01*
X015391Y013248D01*
X015487Y013288D01*
X015605Y013406D01*
X015668Y013559D01*
X015668Y013725D01*
X015605Y013879D01*
X015487Y013996D01*
X015391Y014036D01*
X015487Y014076D01*
X015605Y014193D01*
X015668Y014346D01*
X015668Y014513D01*
X015605Y014666D01*
X015487Y014783D01*
X015391Y014823D01*
X015487Y014863D01*
X015605Y014980D01*
X015668Y015134D01*
X015668Y015271D01*
X015738Y015201D01*
X015738Y011211D01*
X015733Y011216D01*
X015545Y011294D01*
X015342Y011294D01*
X015155Y011216D01*
X015011Y011073D01*
X014953Y010932D01*
X014935Y010987D01*
X014897Y011062D01*
X014848Y011129D01*
X014789Y011188D01*
X014722Y011237D01*
X014647Y011275D01*
X014568Y011301D01*
X014485Y011314D01*
X014462Y011314D01*
X014462Y010802D01*
X014425Y010802D01*
X014425Y010765D01*
X014462Y010765D01*
X014462Y010254D01*
X014485Y010254D01*
X014568Y010267D01*
X014647Y010293D01*
X014722Y010331D01*
X014789Y010380D01*
X014848Y010439D01*
X014897Y010506D01*
X014935Y010580D01*
X014953Y010636D01*
X015011Y010495D01*
X015115Y010391D01*
X015115Y010114D01*
X015011Y010010D01*
X014953Y009869D01*
X014935Y009924D01*
X014897Y009999D01*
X014848Y010066D01*
X014789Y010125D01*
X014722Y010174D01*
X014647Y010212D01*
X014568Y010238D01*
X014485Y010251D01*
X014462Y010251D01*
X014462Y009739D01*
X014425Y009739D01*
X014425Y009702D01*
X014462Y009702D01*
X014462Y009191D01*
X014485Y009191D01*
X014568Y009204D01*
X014647Y009230D01*
X014722Y009268D01*
X014789Y009317D01*
X014848Y009376D01*
X014897Y009443D01*
X014935Y009517D01*
X014953Y009573D01*
X015011Y009432D01*
X015115Y009328D01*
X015115Y009051D01*
X015011Y008947D01*
X014953Y008806D01*
X014935Y008861D01*
X014897Y008936D01*
X014848Y009003D01*
X014789Y009062D01*
X014722Y009111D01*
X014647Y009149D01*
X014568Y009175D01*
X014485Y009188D01*
X014462Y009188D01*
X014462Y008676D01*
X014425Y008676D01*
X014425Y008639D01*
X014462Y008639D01*
X014462Y008128D01*
X014485Y008128D01*
X014568Y008141D01*
X014647Y008167D01*
X014722Y008205D01*
X014789Y008254D01*
X014848Y008313D01*
X014897Y008380D01*
X014935Y008454D01*
X014953Y008510D01*
X015011Y008369D01*
X015096Y008285D01*
X015096Y007968D01*
X015011Y007884D01*
X014953Y007743D01*
X014935Y007798D01*
X014897Y007873D01*
X014848Y007940D01*
X014789Y007999D01*
X014722Y008048D01*
X014647Y008086D01*
X014568Y008112D01*
X014485Y008125D01*
X014462Y008125D01*
X014462Y007613D01*
X014425Y007613D01*
X014425Y007576D01*
X013914Y007576D01*
X013914Y007553D01*
X013927Y007471D01*
X013953Y007391D01*
X013979Y007339D01*
X012117Y007339D01*
X012117Y028410D01*
X012268Y028410D01*
X012194Y028232D01*
X012194Y028029D01*
X012271Y027841D01*
X012415Y027698D01*
X012578Y027630D01*
X012415Y027563D01*
X012271Y027419D01*
X012194Y027232D01*
X012194Y027029D01*
X012271Y026841D01*
X012415Y026698D01*
X012578Y026630D01*
X012415Y026563D01*
X012271Y026419D01*
X012194Y026232D01*
X012194Y026029D01*
X012271Y025841D01*
X012415Y025698D01*
X012556Y025640D01*
X012500Y025621D01*
X012426Y025584D01*
X012358Y025535D01*
X012299Y025476D01*
X012250Y025408D01*
X012212Y025334D01*
X012187Y025254D01*
X012174Y025172D01*
X012174Y025149D01*
X012685Y025149D01*
X012685Y025112D01*
X012174Y025112D01*
X012174Y025089D01*
X012187Y025006D01*
X012212Y024927D01*
X012250Y024853D01*
X012299Y024785D01*
X012358Y024726D01*
X012426Y024677D01*
X012500Y024639D01*
X012556Y024621D01*
X012415Y024563D01*
X012271Y024419D01*
X012194Y024232D01*
X012194Y024029D01*
X012271Y023841D01*
X012415Y023698D01*
X012578Y023630D01*
X012415Y023563D01*
X012271Y023419D01*
X012194Y023232D01*
X012194Y023029D01*
X012271Y022841D01*
X012415Y022698D01*
X012578Y022630D01*
X012415Y022563D01*
X012271Y022419D01*
X012194Y022232D01*
X012194Y022029D01*
X012271Y021841D01*
X012415Y021698D01*
X012578Y021630D01*
X012415Y021563D01*
X012271Y021419D01*
X012194Y021232D01*
X012194Y021029D01*
X012271Y020841D01*
X012415Y020698D01*
X012578Y020630D01*
X012415Y020563D01*
X012271Y020419D01*
X012194Y020232D01*
X012194Y020029D01*
X012271Y019841D01*
X012415Y019698D01*
X012578Y019630D01*
X012415Y019563D01*
X012271Y019419D01*
X012194Y019232D01*
X012194Y019029D01*
X012271Y018841D01*
X012415Y018698D01*
X012578Y018630D01*
X012415Y018563D01*
X012271Y018419D01*
X012194Y018232D01*
X012194Y018029D01*
X012271Y017841D01*
X012415Y017698D01*
X012578Y017630D01*
X012415Y017563D01*
X012271Y017419D01*
X012194Y017232D01*
X012194Y017029D01*
X012271Y016841D01*
X012415Y016698D01*
X012578Y016630D01*
X012415Y016563D01*
X012271Y016419D01*
X012194Y016232D01*
X012194Y016029D01*
X012271Y015841D01*
X012415Y015698D01*
X012578Y015630D01*
X012415Y015563D01*
X012271Y015419D01*
X012194Y015232D01*
X012194Y015029D01*
X012271Y014841D01*
X012415Y014698D01*
X012578Y014630D01*
X012415Y014563D01*
X012271Y014419D01*
X012194Y014232D01*
X012194Y014029D01*
X012271Y013841D01*
X012415Y013698D01*
X012578Y013630D01*
X012415Y013563D01*
X012271Y013419D01*
X012194Y013232D01*
X012194Y013029D01*
X012271Y012841D01*
X012415Y012698D01*
X012578Y012630D01*
X012415Y012563D01*
X012271Y012419D01*
X012194Y012232D01*
X012194Y012029D01*
X012271Y011841D01*
X012415Y011698D01*
X012578Y011630D01*
X012415Y011563D01*
X012271Y011419D01*
X012194Y011232D01*
X012194Y011029D01*
X012271Y010841D01*
X012415Y010698D01*
X012578Y010630D01*
X012415Y010563D01*
X012271Y010419D01*
X012194Y010232D01*
X012194Y010029D01*
X012271Y009841D01*
X012415Y009698D01*
X012578Y009630D01*
X012415Y009563D01*
X012271Y009419D01*
X012194Y009232D01*
X012194Y009029D01*
X012271Y008841D01*
X012415Y008698D01*
X012602Y008620D01*
X012805Y008620D01*
X012993Y008698D01*
X013136Y008841D01*
X013214Y009029D01*
X013214Y009232D01*
X013136Y009419D01*
X012993Y009563D01*
X012829Y009630D01*
X012993Y009698D01*
X013136Y009841D01*
X013214Y010029D01*
X013214Y010232D01*
X013136Y010419D01*
X012993Y010563D01*
X012829Y010630D01*
X012993Y010698D01*
X013136Y010841D01*
X013214Y011029D01*
X013214Y011232D01*
X013136Y011419D01*
X012993Y011563D01*
X012829Y011630D01*
X012993Y011698D01*
X013136Y011841D01*
X013214Y012029D01*
X013214Y012232D01*
X013136Y012419D01*
X012993Y012563D01*
X012829Y012630D01*
X012993Y012698D01*
X013136Y012841D01*
X013214Y013029D01*
X013214Y013232D01*
X013136Y013419D01*
X012993Y013563D01*
X012829Y013630D01*
X012993Y013698D01*
X013136Y013841D01*
X013214Y014029D01*
X013214Y014232D01*
X013179Y014315D01*
X013204Y014290D01*
X013547Y013947D01*
X013547Y013838D01*
X013805Y013580D01*
X014169Y013580D01*
X014427Y013838D01*
X014427Y014202D01*
X014169Y014460D01*
X014052Y014460D01*
X013768Y014744D01*
X013768Y016588D01*
X013797Y016560D01*
X013977Y016560D01*
X013977Y017010D01*
X013997Y017010D01*
X013997Y016560D01*
X014178Y016560D01*
X014447Y016830D01*
X014447Y017010D01*
X013997Y017010D01*
X013997Y017030D01*
X013977Y017030D01*
X013977Y017480D01*
X013797Y017480D01*
X013768Y017452D01*
X013768Y020277D01*
X013768Y020020D02*
X017379Y020020D01*
X017379Y019862D02*
X013768Y019862D01*
X013768Y019703D02*
X017379Y019703D01*
X017379Y019545D02*
X015398Y019545D01*
X015606Y019386D02*
X017379Y019386D01*
X017379Y019228D02*
X015668Y019228D01*
X015668Y019069D02*
X017379Y019069D01*
X017379Y018911D02*
X015787Y018911D01*
X015946Y018752D02*
X017379Y018752D01*
X017379Y018594D02*
X016104Y018594D01*
X016263Y018435D02*
X017379Y018435D01*
X017379Y018277D02*
X016421Y018277D01*
X016492Y018118D02*
X017379Y018118D01*
X017379Y017960D02*
X016492Y017960D01*
X016492Y017801D02*
X017379Y017801D01*
X017227Y017643D02*
X016492Y017643D01*
X016492Y017484D02*
X017036Y017484D01*
X016963Y017326D02*
X016492Y017326D01*
X016492Y017167D02*
X016946Y017167D01*
X017000Y017009D02*
X016492Y017009D01*
X016492Y016850D02*
X017070Y016850D01*
X017127Y016692D02*
X017387Y016692D01*
X017406Y016533D02*
X017226Y016533D01*
X017226Y016375D02*
X017406Y016375D01*
X017406Y016216D02*
X017226Y016216D01*
X017226Y016058D02*
X017406Y016058D01*
X017451Y015899D02*
X017189Y015899D01*
X017209Y015741D02*
X018415Y015741D01*
X018415Y015582D02*
X017226Y015582D01*
X017970Y015424D02*
X018415Y015424D01*
X018415Y015265D02*
X018098Y015265D01*
X018155Y015107D02*
X018415Y015107D01*
X018415Y014948D02*
X018155Y014948D01*
X018098Y014790D02*
X018415Y014790D01*
X018415Y014631D02*
X017969Y014631D01*
X018415Y014473D02*
X017339Y014473D01*
X017339Y014314D02*
X018415Y014314D01*
X018415Y014156D02*
X017339Y014156D01*
X017339Y013997D02*
X018415Y013997D01*
X018415Y013839D02*
X017339Y013839D01*
X017339Y013680D02*
X018415Y013680D01*
X018415Y013522D02*
X017258Y013522D01*
X017556Y013363D02*
X018006Y013363D01*
X018160Y013363D02*
X018160Y013363D01*
X018160Y013387D02*
X018160Y012882D01*
X018160Y012882D01*
X018415Y012882D01*
X018415Y012882D01*
X018160Y012882D01*
X018160Y012882D01*
X018160Y013387D01*
X018314Y013363D02*
X018415Y013363D01*
X018160Y013205D02*
X018160Y013205D01*
X018160Y013046D02*
X018160Y013046D01*
X018160Y012888D02*
X018160Y012888D01*
X018160Y012729D02*
X018160Y012729D01*
X018160Y012571D02*
X018160Y012571D01*
X018160Y012412D02*
X018160Y012412D01*
X017973Y012412D02*
X017854Y012412D01*
X017762Y012571D02*
X017645Y012571D01*
X017645Y012729D02*
X017679Y012729D01*
X017655Y012888D02*
X017645Y012888D01*
X017645Y013046D02*
X017683Y013046D01*
X017645Y013205D02*
X017770Y013205D01*
X018004Y012254D02*
X018415Y012254D01*
X018415Y012412D02*
X018348Y012412D01*
X018415Y012095D02*
X018040Y012095D01*
X018004Y011937D02*
X018415Y011937D01*
X018415Y011778D02*
X017856Y011778D01*
X017502Y011620D02*
X018415Y011620D01*
X018415Y011461D02*
X017343Y011461D01*
X017185Y011303D02*
X017994Y011303D01*
X017981Y011301D02*
X018063Y011314D01*
X018087Y011314D01*
X018087Y010802D01*
X017575Y010802D01*
X017575Y010826D01*
X017588Y010908D01*
X017614Y010987D01*
X017652Y011062D01*
X017701Y011129D01*
X017760Y011188D01*
X017827Y011237D01*
X017902Y011275D01*
X017981Y011301D01*
X018087Y011303D02*
X018124Y011303D01*
X018217Y011303D02*
X018415Y011303D01*
X018124Y011144D02*
X018087Y011144D01*
X018087Y010986D02*
X018124Y010986D01*
X018124Y010827D02*
X018087Y010827D01*
X018087Y010765D02*
X017575Y010765D01*
X017575Y010742D01*
X017588Y010660D01*
X017614Y010580D01*
X017652Y010506D01*
X017701Y010439D01*
X017760Y010380D01*
X017827Y010331D01*
X017902Y010293D01*
X017981Y010267D01*
X018063Y010254D01*
X018087Y010254D01*
X018087Y010765D01*
X018087Y010669D02*
X018124Y010669D01*
X018124Y010510D02*
X018087Y010510D01*
X018087Y010352D02*
X018124Y010352D01*
X018087Y010251D02*
X018063Y010251D01*
X017981Y010238D01*
X017902Y010212D01*
X017827Y010174D01*
X017760Y010125D01*
X017701Y010066D01*
X017652Y009999D01*
X017614Y009924D01*
X017588Y009845D01*
X017575Y009763D01*
X017575Y009739D01*
X018087Y009739D01*
X018087Y010251D01*
X018087Y010193D02*
X018124Y010193D01*
X018124Y010035D02*
X018087Y010035D01*
X018087Y009876D02*
X018124Y009876D01*
X018087Y009718D02*
X017142Y009718D01*
X017142Y009876D02*
X017598Y009876D01*
X017575Y009702D02*
X017575Y009679D01*
X017588Y009597D01*
X017614Y009517D01*
X017652Y009443D01*
X017701Y009376D01*
X017760Y009317D01*
X017827Y009268D01*
X017902Y009230D01*
X017981Y009204D01*
X018063Y009191D01*
X018087Y009191D01*
X018087Y009702D01*
X017575Y009702D01*
X017600Y009559D02*
X017142Y009559D01*
X017142Y009401D02*
X017683Y009401D01*
X017877Y009242D02*
X017142Y009242D01*
X017142Y009084D02*
X017790Y009084D01*
X017760Y009062D02*
X017701Y009003D01*
X017652Y008936D01*
X017614Y008861D01*
X017588Y008782D01*
X017575Y008700D01*
X017575Y008676D01*
X018087Y008676D01*
X018087Y009188D01*
X018063Y009188D01*
X017981Y009175D01*
X017902Y009149D01*
X017827Y009111D01*
X017760Y009062D01*
X017647Y008925D02*
X017012Y008925D01*
X016951Y008767D02*
X017586Y008767D01*
X017575Y008639D02*
X017575Y008616D01*
X017588Y008534D01*
X017614Y008454D01*
X017652Y008380D01*
X017701Y008313D01*
X017760Y008254D01*
X017827Y008205D01*
X017902Y008167D01*
X017981Y008141D01*
X018063Y008128D01*
X018087Y008128D01*
X018087Y008639D01*
X017575Y008639D01*
X017576Y008608D02*
X016954Y008608D01*
X016910Y008450D02*
X017616Y008450D01*
X017722Y008291D02*
X016798Y008291D01*
X016786Y007974D02*
X017735Y007974D01*
X017760Y007999D02*
X017701Y007940D01*
X017652Y007873D01*
X017614Y007798D01*
X017588Y007719D01*
X017575Y007637D01*
X017575Y007613D01*
X018087Y007613D01*
X018087Y008125D01*
X018063Y008125D01*
X017981Y008112D01*
X017902Y008086D01*
X017827Y008048D01*
X017760Y007999D01*
X017623Y007816D02*
X016904Y007816D01*
X016954Y007657D02*
X017578Y007657D01*
X017584Y007499D02*
X016954Y007499D01*
X016890Y007340D02*
X017640Y007340D01*
X018087Y007657D02*
X018124Y007657D01*
X018124Y007816D02*
X018087Y007816D01*
X018087Y007974D02*
X018124Y007974D01*
X018124Y008133D02*
X018087Y008133D01*
X018032Y008133D02*
X015816Y008133D01*
X015816Y008291D02*
X016089Y008291D01*
X015978Y008450D02*
X015910Y008450D01*
X015816Y007974D02*
X016102Y007974D01*
X015983Y007816D02*
X015904Y007816D01*
X015096Y007974D02*
X014814Y007974D01*
X014926Y007816D02*
X014983Y007816D01*
X015096Y008133D02*
X014516Y008133D01*
X014462Y008133D02*
X014425Y008133D01*
X014425Y008128D02*
X014425Y008639D01*
X013914Y008639D01*
X013914Y008616D01*
X013927Y008534D01*
X013953Y008454D01*
X013990Y008380D01*
X014040Y008313D01*
X014099Y008254D01*
X014166Y008205D01*
X014240Y008167D01*
X014320Y008141D01*
X014402Y008128D01*
X014425Y008128D01*
X014425Y008125D02*
X014402Y008125D01*
X014320Y008112D01*
X014240Y008086D01*
X014166Y008048D01*
X014099Y007999D01*
X014040Y007940D01*
X013990Y007873D01*
X013953Y007798D01*
X013927Y007719D01*
X013914Y007637D01*
X013914Y007613D01*
X014425Y007613D01*
X014425Y008125D01*
X014371Y008133D02*
X012117Y008133D01*
X012117Y008291D02*
X014061Y008291D01*
X013955Y008450D02*
X012117Y008450D01*
X012117Y008608D02*
X013915Y008608D01*
X013914Y008676D02*
X014425Y008676D01*
X014425Y009188D01*
X014402Y009188D01*
X014320Y009175D01*
X014240Y009149D01*
X014166Y009111D01*
X014099Y009062D01*
X014040Y009003D01*
X013990Y008936D01*
X013953Y008861D01*
X013927Y008782D01*
X013914Y008700D01*
X013914Y008676D01*
X013924Y008767D02*
X013061Y008767D01*
X013171Y008925D02*
X013985Y008925D01*
X014128Y009084D02*
X013214Y009084D01*
X013209Y009242D02*
X014216Y009242D01*
X014240Y009230D02*
X014320Y009204D01*
X014402Y009191D01*
X014425Y009191D01*
X014425Y009702D01*
X013914Y009702D01*
X013914Y009679D01*
X013927Y009597D01*
X013953Y009517D01*
X013990Y009443D01*
X014040Y009376D01*
X014099Y009317D01*
X014166Y009268D01*
X014240Y009230D01*
X014425Y009242D02*
X014462Y009242D01*
X014462Y009084D02*
X014425Y009084D01*
X014425Y008925D02*
X014462Y008925D01*
X014462Y008767D02*
X014425Y008767D01*
X014425Y008608D02*
X014462Y008608D01*
X014462Y008450D02*
X014425Y008450D01*
X014425Y008291D02*
X014462Y008291D01*
X014462Y007974D02*
X014425Y007974D01*
X014425Y007816D02*
X014462Y007816D01*
X014462Y007657D02*
X014425Y007657D01*
X014074Y007974D02*
X012117Y007974D01*
X012117Y007816D02*
X013962Y007816D01*
X013917Y007657D02*
X012117Y007657D01*
X012117Y007499D02*
X013922Y007499D01*
X013979Y007340D02*
X012117Y007340D01*
X012117Y008767D02*
X012346Y008767D01*
X012237Y008925D02*
X012117Y008925D01*
X012117Y009084D02*
X012194Y009084D01*
X012198Y009242D02*
X012117Y009242D01*
X012117Y009401D02*
X012264Y009401D01*
X012117Y009559D02*
X012411Y009559D01*
X012395Y009718D02*
X012117Y009718D01*
X012117Y009876D02*
X012257Y009876D01*
X012194Y010035D02*
X012117Y010035D01*
X012117Y010193D02*
X012194Y010193D01*
X012243Y010352D02*
X012117Y010352D01*
X012117Y010510D02*
X012362Y010510D01*
X012485Y010669D02*
X012117Y010669D01*
X012117Y010827D02*
X012285Y010827D01*
X012211Y010986D02*
X012117Y010986D01*
X012117Y011144D02*
X012194Y011144D01*
X012223Y011303D02*
X012117Y011303D01*
X012117Y011461D02*
X012313Y011461D01*
X012117Y011620D02*
X012553Y011620D01*
X012334Y011778D02*
X012117Y011778D01*
X012117Y011937D02*
X012232Y011937D01*
X012194Y012095D02*
X012117Y012095D01*
X012117Y012254D02*
X012203Y012254D01*
X012268Y012412D02*
X012117Y012412D01*
X012117Y012571D02*
X012434Y012571D01*
X012383Y012729D02*
X012117Y012729D01*
X012117Y012888D02*
X012252Y012888D01*
X012194Y013046D02*
X012117Y013046D01*
X012117Y013205D02*
X012194Y013205D01*
X012248Y013363D02*
X012117Y013363D01*
X012117Y013522D02*
X012374Y013522D01*
X012457Y013680D02*
X012117Y013680D01*
X012117Y013839D02*
X012274Y013839D01*
X012207Y013997D02*
X012117Y013997D01*
X012117Y014156D02*
X012194Y014156D01*
X012228Y014314D02*
X012117Y014314D01*
X012117Y014473D02*
X012325Y014473D01*
X012117Y014631D02*
X012576Y014631D01*
X012323Y014790D02*
X012117Y014790D01*
X012117Y014948D02*
X012227Y014948D01*
X012194Y015107D02*
X012117Y015107D01*
X012117Y015265D02*
X012208Y015265D01*
X012276Y015424D02*
X012117Y015424D01*
X012117Y015582D02*
X012462Y015582D01*
X012372Y015741D02*
X012117Y015741D01*
X012117Y015899D02*
X012247Y015899D01*
X012194Y016058D02*
X012117Y016058D01*
X012117Y016216D02*
X012194Y016216D01*
X012253Y016375D02*
X012117Y016375D01*
X012117Y016533D02*
X012385Y016533D01*
X012430Y016692D02*
X012117Y016692D01*
X012117Y016850D02*
X012268Y016850D01*
X012202Y017009D02*
X012117Y017009D01*
X012117Y017167D02*
X012194Y017167D01*
X012233Y017326D02*
X012117Y017326D01*
X012117Y017484D02*
X012336Y017484D01*
X012548Y017643D02*
X012117Y017643D01*
X012117Y017801D02*
X012311Y017801D01*
X012222Y017960D02*
X012117Y017960D01*
X012117Y018118D02*
X012194Y018118D01*
X012212Y018277D02*
X012117Y018277D01*
X012117Y018435D02*
X012287Y018435D01*
X012117Y018594D02*
X012490Y018594D01*
X012360Y018752D02*
X012117Y018752D01*
X012117Y018911D02*
X012243Y018911D01*
X012194Y019069D02*
X012117Y019069D01*
X012117Y019228D02*
X012194Y019228D01*
X012258Y019386D02*
X012117Y019386D01*
X012117Y019545D02*
X012397Y019545D01*
X012409Y019703D02*
X012117Y019703D01*
X012117Y019862D02*
X012263Y019862D01*
X012197Y020020D02*
X012117Y020020D01*
X012117Y020179D02*
X012194Y020179D01*
X012237Y020337D02*
X012117Y020337D01*
X012117Y020496D02*
X012348Y020496D01*
X012520Y020654D02*
X012117Y020654D01*
X012117Y020813D02*
X012300Y020813D01*
X012217Y020971D02*
X012117Y020971D01*
X012117Y021130D02*
X012194Y021130D01*
X012217Y021288D02*
X012117Y021288D01*
X012117Y021447D02*
X012299Y021447D01*
X012117Y021605D02*
X012518Y021605D01*
X012349Y021764D02*
X012117Y021764D01*
X012117Y021922D02*
X012238Y021922D01*
X012194Y022081D02*
X012117Y022081D01*
X012117Y022239D02*
X012197Y022239D01*
X012262Y022398D02*
X012117Y022398D01*
X012117Y022556D02*
X012408Y022556D01*
X012398Y022715D02*
X012117Y022715D01*
X012117Y022873D02*
X012258Y022873D01*
X012194Y023032D02*
X012117Y023032D01*
X012117Y023190D02*
X012194Y023190D01*
X012242Y023349D02*
X012117Y023349D01*
X012117Y023507D02*
X012359Y023507D01*
X012492Y023666D02*
X012117Y023666D01*
X012117Y023824D02*
X012288Y023824D01*
X012213Y023983D02*
X012117Y023983D01*
X012117Y024141D02*
X012194Y024141D01*
X012222Y024300D02*
X012117Y024300D01*
X012117Y024458D02*
X012310Y024458D01*
X012117Y024617D02*
X012545Y024617D01*
X012309Y024775D02*
X012117Y024775D01*
X012117Y024934D02*
X012210Y024934D01*
X012174Y025092D02*
X012117Y025092D01*
X012117Y025251D02*
X012186Y025251D01*
X012251Y025409D02*
X012117Y025409D01*
X012117Y025568D02*
X012404Y025568D01*
X012386Y025726D02*
X012117Y025726D01*
X012117Y025885D02*
X012253Y025885D01*
X012194Y026043D02*
X012117Y026043D01*
X012117Y026202D02*
X012194Y026202D01*
X012247Y026360D02*
X012117Y026360D01*
X012117Y026519D02*
X012371Y026519D01*
X012465Y026677D02*
X012117Y026677D01*
X012117Y026836D02*
X012277Y026836D01*
X012208Y026994D02*
X012117Y026994D01*
X012117Y027153D02*
X012194Y027153D01*
X012227Y027311D02*
X012117Y027311D01*
X012117Y027470D02*
X012322Y027470D01*
X012117Y027628D02*
X012573Y027628D01*
X012834Y027628D02*
X014095Y027628D01*
X014089Y027638D02*
X014113Y027597D01*
X014147Y027563D01*
X014188Y027540D01*
X014233Y027527D01*
X014536Y027527D01*
X014536Y027986D01*
X014077Y027986D01*
X014077Y027684D01*
X014089Y027638D01*
X014077Y027787D02*
X013081Y027787D01*
X013179Y027945D02*
X014077Y027945D01*
X014077Y028104D02*
X013214Y028104D01*
X013201Y028262D02*
X014077Y028262D01*
X014536Y027945D02*
X014572Y027945D01*
X014572Y027787D02*
X014536Y027787D01*
X014536Y027628D02*
X014572Y027628D01*
X015017Y027470D02*
X013085Y027470D01*
X013181Y027311D02*
X015017Y027311D01*
X015017Y027153D02*
X013214Y027153D01*
X013199Y026994D02*
X015017Y026994D01*
X015017Y026836D02*
X013130Y026836D01*
X012943Y026677D02*
X015017Y026677D01*
X014572Y026519D02*
X014536Y026519D01*
X014536Y026360D02*
X014572Y026360D01*
X014572Y026202D02*
X014536Y026202D01*
X014536Y026104D02*
X014077Y026104D01*
X014077Y025802D01*
X014089Y025756D01*
X014113Y025715D01*
X014147Y025682D01*
X014188Y025658D01*
X014233Y025646D01*
X014536Y025646D01*
X014536Y026104D01*
X014536Y026043D02*
X014572Y026043D01*
X014572Y025885D02*
X014536Y025885D01*
X014536Y025726D02*
X014572Y025726D01*
X014997Y025568D02*
X013003Y025568D01*
X013021Y025726D02*
X014107Y025726D01*
X014077Y025885D02*
X013154Y025885D01*
X013214Y026043D02*
X014077Y026043D01*
X014077Y026202D02*
X013214Y026202D01*
X013160Y026360D02*
X014077Y026360D01*
X014107Y026519D02*
X013036Y026519D01*
X013156Y025409D02*
X014997Y025409D01*
X014997Y025251D02*
X013221Y025251D01*
X013234Y025092D02*
X014997Y025092D01*
X014997Y024934D02*
X013197Y024934D01*
X013098Y024775D02*
X014997Y024775D01*
X014572Y024617D02*
X014536Y024617D01*
X014536Y024458D02*
X014572Y024458D01*
X014572Y024300D02*
X014536Y024300D01*
X014536Y024222D02*
X014077Y024222D01*
X014077Y023920D01*
X014089Y023874D01*
X014113Y023833D01*
X014147Y023800D01*
X014188Y023776D01*
X014233Y023764D01*
X014536Y023764D01*
X014536Y024222D01*
X014536Y024141D02*
X014572Y024141D01*
X014572Y023983D02*
X014536Y023983D01*
X014536Y023824D02*
X014572Y023824D01*
X014122Y023824D02*
X013119Y023824D01*
X013195Y023983D02*
X014077Y023983D01*
X014077Y024141D02*
X013214Y024141D01*
X013185Y024300D02*
X014077Y024300D01*
X014077Y024458D02*
X013097Y024458D01*
X012862Y024617D02*
X014095Y024617D01*
X014997Y023666D02*
X012915Y023666D01*
X013048Y023507D02*
X014997Y023507D01*
X014997Y023349D02*
X013165Y023349D01*
X013214Y023190D02*
X014997Y023190D01*
X014997Y023032D02*
X013214Y023032D01*
X013149Y022873D02*
X014997Y022873D01*
X014572Y022715D02*
X014536Y022715D01*
X014536Y022556D02*
X014572Y022556D01*
X014572Y022398D02*
X014536Y022398D01*
X014536Y022340D02*
X014077Y022340D01*
X014077Y022038D01*
X014089Y021992D01*
X014113Y021951D01*
X014147Y021918D01*
X014188Y021894D01*
X014233Y021882D01*
X014536Y021882D01*
X014536Y022340D01*
X014536Y022239D02*
X014572Y022239D01*
X014572Y022081D02*
X014536Y022081D01*
X014536Y021922D02*
X014572Y021922D01*
X014142Y021922D02*
X013169Y021922D01*
X013214Y022081D02*
X014077Y022081D01*
X014077Y022239D02*
X013210Y022239D01*
X013145Y022398D02*
X014077Y022398D01*
X014077Y022556D02*
X012999Y022556D01*
X013009Y022715D02*
X014087Y022715D01*
X013058Y021764D02*
X015236Y021764D01*
X015377Y021605D02*
X012890Y021605D01*
X013108Y021447D02*
X015535Y021447D01*
X015694Y021288D02*
X013190Y021288D01*
X013214Y021130D02*
X015852Y021130D01*
X016011Y020971D02*
X013190Y020971D01*
X013107Y020813D02*
X016169Y020813D01*
X016328Y020654D02*
X012887Y020654D01*
X013059Y020496D02*
X013190Y020496D01*
X013627Y020496D02*
X017379Y020496D01*
X017540Y021254D02*
X016746Y021254D01*
X016099Y021902D01*
X016492Y021902D01*
X016586Y021996D01*
X016586Y022722D01*
X016492Y022816D01*
X016355Y022816D01*
X016355Y023784D01*
X016492Y023784D01*
X016586Y023877D01*
X016586Y024604D01*
X016492Y024697D01*
X016355Y024697D01*
X016355Y025666D01*
X016492Y025666D01*
X016586Y025759D01*
X016586Y026486D01*
X016492Y026579D01*
X016355Y026579D01*
X016355Y027547D01*
X016492Y027547D01*
X016586Y027641D01*
X016586Y028367D01*
X016543Y028410D01*
X017848Y028410D01*
X017826Y028371D01*
X017813Y028325D01*
X017813Y028023D01*
X018272Y028023D01*
X018272Y027986D01*
X018309Y027986D01*
X018309Y027527D01*
X018611Y027527D01*
X018657Y027540D01*
X018698Y027563D01*
X018698Y027564D01*
X018715Y027547D01*
X018718Y027547D01*
X018718Y026579D01*
X018715Y026579D01*
X018698Y026563D01*
X018698Y026563D01*
X018657Y026587D01*
X018611Y026599D01*
X018309Y026599D01*
X018309Y026141D01*
X018272Y026141D01*
X018272Y026599D01*
X017970Y026599D01*
X017924Y026587D01*
X017883Y026563D01*
X017849Y026530D01*
X017826Y026489D01*
X017813Y026443D01*
X017813Y026141D01*
X018272Y026141D01*
X018272Y026104D01*
X018309Y026104D01*
X018309Y025646D01*
X018611Y025646D01*
X018657Y025658D01*
X018698Y025682D01*
X018715Y025666D01*
X018718Y025666D01*
X018718Y024697D01*
X018715Y024697D01*
X018698Y024681D01*
X018698Y024681D01*
X018657Y024705D01*
X018611Y024717D01*
X018309Y024717D01*
X018309Y024259D01*
X018272Y024259D01*
X018272Y024717D01*
X017970Y024717D01*
X017924Y024705D01*
X017883Y024681D01*
X017849Y024648D01*
X017826Y024607D01*
X017813Y024561D01*
X017813Y024259D01*
X018272Y024259D01*
X018272Y024222D01*
X018309Y024222D01*
X018309Y023764D01*
X018611Y023764D01*
X018657Y023776D01*
X018698Y023800D01*
X018715Y023784D01*
X018718Y023784D01*
X018718Y022816D01*
X018715Y022816D01*
X018698Y022799D01*
X018698Y022800D01*
X018657Y022823D01*
X018611Y022836D01*
X018309Y022836D01*
X018309Y022377D01*
X018272Y022377D01*
X018272Y022836D01*
X017970Y022836D01*
X017924Y022823D01*
X017883Y022800D01*
X017849Y022766D01*
X017826Y022725D01*
X017813Y022679D01*
X017813Y022377D01*
X018272Y022377D01*
X018272Y022340D01*
X018309Y022340D01*
X018309Y021894D01*
X017653Y021238D01*
X017614Y021254D01*
X017612Y021254D01*
X017609Y021255D01*
X017540Y021254D01*
X017703Y021288D02*
X016712Y021288D01*
X016554Y021447D02*
X017861Y021447D01*
X018020Y021605D02*
X016395Y021605D01*
X016237Y021764D02*
X018178Y021764D01*
X018272Y021882D02*
X018272Y022340D01*
X017813Y022340D01*
X017813Y022038D01*
X017826Y021992D01*
X017849Y021951D01*
X017883Y021918D01*
X017924Y021894D01*
X017970Y021882D01*
X018272Y021882D01*
X018272Y021922D02*
X018309Y021922D01*
X018309Y022081D02*
X018272Y022081D01*
X018272Y022239D02*
X018309Y022239D01*
X018309Y022398D02*
X018272Y022398D01*
X018272Y022556D02*
X018309Y022556D01*
X018309Y022715D02*
X018272Y022715D01*
X017823Y022715D02*
X016586Y022715D01*
X016586Y022556D02*
X017813Y022556D01*
X017813Y022398D02*
X016586Y022398D01*
X016586Y022239D02*
X017813Y022239D01*
X017813Y022081D02*
X016586Y022081D01*
X016512Y021922D02*
X017878Y021922D01*
X018718Y022873D02*
X016355Y022873D01*
X016355Y023032D02*
X018718Y023032D01*
X018718Y023190D02*
X016355Y023190D01*
X016355Y023349D02*
X018718Y023349D01*
X018718Y023507D02*
X016355Y023507D01*
X016355Y023666D02*
X018718Y023666D01*
X018698Y023800D02*
X018698Y023800D01*
X018309Y023824D02*
X018272Y023824D01*
X018272Y023764D02*
X017970Y023764D01*
X017924Y023776D01*
X017883Y023800D01*
X017849Y023833D01*
X017826Y023874D01*
X017813Y023920D01*
X017813Y024222D01*
X018272Y024222D01*
X018272Y023764D01*
X018272Y023983D02*
X018309Y023983D01*
X018309Y024141D02*
X018272Y024141D01*
X018272Y024300D02*
X018309Y024300D01*
X018309Y024458D02*
X018272Y024458D01*
X018272Y024617D02*
X018309Y024617D01*
X018718Y024775D02*
X016355Y024775D01*
X016355Y024934D02*
X018718Y024934D01*
X018718Y025092D02*
X016355Y025092D01*
X016355Y025251D02*
X018718Y025251D01*
X018718Y025409D02*
X016355Y025409D01*
X016355Y025568D02*
X018718Y025568D01*
X018698Y025682D02*
X018698Y025682D01*
X018309Y025726D02*
X018272Y025726D01*
X018272Y025646D02*
X017970Y025646D01*
X017924Y025658D01*
X017883Y025682D01*
X017849Y025715D01*
X017826Y025756D01*
X017813Y025802D01*
X017813Y026104D01*
X018272Y026104D01*
X018272Y025646D01*
X018272Y025885D02*
X018309Y025885D01*
X018309Y026043D02*
X018272Y026043D01*
X018272Y026202D02*
X018309Y026202D01*
X018309Y026360D02*
X018272Y026360D01*
X018272Y026519D02*
X018309Y026519D01*
X018718Y026677D02*
X016355Y026677D01*
X016355Y026836D02*
X018718Y026836D01*
X018718Y026994D02*
X016355Y026994D01*
X016355Y027153D02*
X018718Y027153D01*
X018718Y027311D02*
X016355Y027311D01*
X016355Y027470D02*
X018718Y027470D01*
X018309Y027628D02*
X018272Y027628D01*
X018272Y027527D02*
X018272Y027986D01*
X017813Y027986D01*
X017813Y027684D01*
X017826Y027638D01*
X017849Y027597D01*
X017883Y027563D01*
X017924Y027540D01*
X017970Y027527D01*
X018272Y027527D01*
X018272Y027787D02*
X018309Y027787D01*
X018309Y027945D02*
X018272Y027945D01*
X017813Y027945D02*
X016586Y027945D01*
X016586Y027787D02*
X017813Y027787D01*
X017831Y027628D02*
X016573Y027628D01*
X016586Y028104D02*
X017813Y028104D01*
X017813Y028262D02*
X016586Y028262D01*
X016552Y026519D02*
X017843Y026519D01*
X017813Y026360D02*
X016586Y026360D01*
X016586Y026202D02*
X017813Y026202D01*
X017813Y026043D02*
X016586Y026043D01*
X016586Y025885D02*
X017813Y025885D01*
X017843Y025726D02*
X016553Y025726D01*
X016573Y024617D02*
X017831Y024617D01*
X017813Y024458D02*
X016586Y024458D01*
X016586Y024300D02*
X017813Y024300D01*
X017813Y024141D02*
X016586Y024141D01*
X016586Y023983D02*
X017813Y023983D01*
X017858Y023824D02*
X016533Y023824D01*
X020075Y024697D02*
X020075Y025666D01*
X020228Y025666D01*
X020322Y025759D01*
X020322Y026486D01*
X020228Y026579D01*
X020075Y026579D01*
X020075Y027547D01*
X020228Y027547D01*
X020322Y027641D01*
X020322Y028367D01*
X020279Y028410D01*
X021268Y028410D01*
X021194Y028232D01*
X021194Y028029D01*
X021271Y027841D01*
X021415Y027698D01*
X021578Y027630D01*
X021415Y027563D01*
X021271Y027419D01*
X021194Y027232D01*
X021194Y027029D01*
X021271Y026841D01*
X021415Y026698D01*
X021556Y026640D01*
X021500Y026621D01*
X021426Y026584D01*
X021358Y026535D01*
X021299Y026476D01*
X021250Y026408D01*
X021212Y026334D01*
X021187Y026254D01*
X021174Y026172D01*
X021174Y026149D01*
X021685Y026149D01*
X021685Y026112D01*
X021174Y026112D01*
X021174Y026089D01*
X021187Y026006D01*
X021212Y025927D01*
X021250Y025853D01*
X021299Y025785D01*
X021358Y025726D01*
X020289Y025726D01*
X020322Y025885D02*
X021234Y025885D01*
X021181Y026043D02*
X020322Y026043D01*
X020322Y026202D02*
X021178Y026202D01*
X021226Y026360D02*
X020322Y026360D01*
X020289Y026519D02*
X021343Y026519D01*
X021465Y026677D02*
X020075Y026677D01*
X020075Y026836D02*
X021277Y026836D01*
X021208Y026994D02*
X020075Y026994D01*
X020075Y027153D02*
X021194Y027153D01*
X021227Y027311D02*
X020075Y027311D01*
X020075Y027470D02*
X021322Y027470D01*
X021573Y027628D02*
X020309Y027628D01*
X020322Y027787D02*
X021326Y027787D01*
X021228Y027945D02*
X020322Y027945D01*
X020322Y028104D02*
X021194Y028104D01*
X021206Y028262D02*
X020322Y028262D01*
X021829Y027630D02*
X021993Y027698D01*
X022136Y027841D01*
X022214Y028029D01*
X022214Y028232D01*
X022140Y028410D01*
X024472Y028410D01*
X024472Y026355D01*
X023789Y026355D01*
X023695Y026262D01*
X023695Y025883D01*
X023685Y025873D01*
X023685Y025910D01*
X023673Y025989D01*
X023648Y026064D01*
X023612Y026135D01*
X023565Y026199D01*
X023509Y026256D01*
X023445Y026302D01*
X023374Y026338D01*
X023298Y026363D01*
X023220Y026375D01*
X023180Y026375D01*
X023140Y026375D01*
X023062Y026363D01*
X022986Y026338D01*
X022915Y026302D01*
X022851Y026256D01*
X022795Y026199D01*
X022748Y026135D01*
X022712Y026064D01*
X022687Y025989D01*
X022675Y025910D01*
X022675Y025870D01*
X022675Y025831D01*
X022687Y025752D01*
X022712Y025677D01*
X022748Y025606D01*
X022795Y025541D01*
X022851Y025485D01*
X022915Y025439D01*
X022986Y025402D01*
X023062Y025378D01*
X023140Y025365D01*
X023178Y025365D01*
X022237Y024425D01*
X022185Y024300D01*
X022136Y024419D01*
X021993Y024563D01*
X021851Y024621D01*
X021907Y024639D01*
X021981Y024677D01*
X022049Y024726D01*
X022108Y024785D01*
X022157Y024853D01*
X022195Y024927D01*
X022221Y025006D01*
X022234Y025089D01*
X022234Y025112D01*
X021722Y025112D01*
X021722Y025149D01*
X021685Y025149D01*
X021685Y025660D01*
X021685Y026112D01*
X021722Y026112D01*
X021722Y026149D01*
X022234Y026149D01*
X022234Y026172D01*
X022221Y026254D01*
X022195Y026334D01*
X022157Y026408D01*
X022108Y026476D01*
X022049Y026535D01*
X021981Y026584D01*
X021907Y026621D01*
X021851Y026640D01*
X021993Y026698D01*
X022136Y026841D01*
X022214Y027029D01*
X022214Y027232D01*
X022136Y027419D01*
X021993Y027563D01*
X021829Y027630D01*
X021834Y027628D02*
X024472Y027628D01*
X024472Y027470D02*
X022085Y027470D01*
X022181Y027311D02*
X024472Y027311D01*
X024472Y027153D02*
X022214Y027153D01*
X022199Y026994D02*
X024472Y026994D01*
X024472Y026836D02*
X022130Y026836D01*
X021943Y026677D02*
X024472Y026677D01*
X024472Y026519D02*
X022065Y026519D01*
X022181Y026360D02*
X023053Y026360D01*
X023180Y026360D02*
X023180Y026360D01*
X023180Y026375D02*
X023180Y025870D01*
X022675Y025870D01*
X023180Y025870D01*
X023180Y025870D01*
X023180Y025870D01*
X023180Y026375D01*
X023307Y026360D02*
X024472Y026360D01*
X023695Y026202D02*
X023563Y026202D01*
X023655Y026043D02*
X023695Y026043D01*
X023685Y025885D02*
X023695Y025885D01*
X023180Y025885D02*
X023180Y025885D01*
X023180Y026043D02*
X023180Y026043D01*
X023180Y026202D02*
X023180Y026202D01*
X022797Y026202D02*
X022229Y026202D01*
X022234Y026112D02*
X021722Y026112D01*
X021722Y025149D01*
X022234Y025149D01*
X022234Y025172D01*
X022221Y025254D01*
X022195Y025334D01*
X022157Y025408D01*
X022108Y025476D01*
X022049Y025535D01*
X021981Y025584D01*
X021907Y025621D01*
X021880Y025630D01*
X021907Y025639D01*
X021981Y025677D01*
X022049Y025726D01*
X022108Y025785D01*
X022157Y025853D01*
X022195Y025927D01*
X022221Y026006D01*
X022234Y026089D01*
X022234Y026112D01*
X022226Y026043D02*
X022705Y026043D01*
X022675Y025885D02*
X022173Y025885D01*
X022049Y025726D02*
X022696Y025726D01*
X022776Y025568D02*
X022003Y025568D01*
X022156Y025409D02*
X022973Y025409D01*
X023063Y025251D02*
X022221Y025251D01*
X022234Y025092D02*
X022905Y025092D01*
X022746Y024934D02*
X022197Y024934D01*
X022098Y024775D02*
X022588Y024775D01*
X022429Y024617D02*
X021862Y024617D01*
X022097Y024458D02*
X022271Y024458D01*
X021556Y024621D02*
X021415Y024563D01*
X021271Y024419D01*
X021243Y024352D01*
X020322Y024352D01*
X020322Y024604D01*
X020228Y024697D01*
X020075Y024697D01*
X020075Y024775D02*
X021309Y024775D01*
X021299Y024785D02*
X021358Y024726D01*
X021426Y024677D01*
X021500Y024639D01*
X021556Y024621D01*
X021545Y024617D02*
X020309Y024617D01*
X020322Y024458D02*
X021310Y024458D01*
X021299Y024785D02*
X021250Y024853D01*
X021212Y024927D01*
X021187Y025006D01*
X021174Y025089D01*
X021174Y025112D01*
X021685Y025112D01*
X021685Y025149D01*
X021174Y025149D01*
X021174Y025172D01*
X021187Y025254D01*
X021212Y025334D01*
X021250Y025408D01*
X021299Y025476D01*
X021358Y025535D01*
X021426Y025584D01*
X021500Y025621D01*
X021527Y025630D01*
X021500Y025639D01*
X021426Y025677D01*
X021358Y025726D01*
X021404Y025568D02*
X020075Y025568D01*
X020075Y025409D02*
X021251Y025409D01*
X021186Y025251D02*
X020075Y025251D01*
X020075Y025092D02*
X021174Y025092D01*
X021210Y024934D02*
X020075Y024934D01*
X021685Y025251D02*
X021722Y025251D01*
X021722Y025409D02*
X021685Y025409D01*
X021685Y025568D02*
X021722Y025568D01*
X021722Y025726D02*
X021685Y025726D01*
X021685Y025885D02*
X021722Y025885D01*
X021722Y026043D02*
X021685Y026043D01*
X023606Y024775D02*
X024472Y024775D01*
X024472Y024617D02*
X023447Y024617D01*
X023289Y024458D02*
X024472Y024458D01*
X024472Y024300D02*
X023130Y024300D01*
X022972Y024141D02*
X024472Y024141D01*
X024472Y023983D02*
X022902Y023983D01*
X022902Y024072D02*
X024216Y025385D01*
X024472Y025385D01*
X024472Y023903D01*
X023789Y023903D01*
X023695Y023809D01*
X023695Y023026D01*
X023789Y022933D01*
X023966Y022933D01*
X023966Y021304D01*
X023769Y021304D01*
X023675Y021211D01*
X023675Y020428D01*
X023769Y020334D01*
X024104Y020334D01*
X024104Y019526D01*
X023995Y019571D01*
X023829Y019571D01*
X023676Y019508D01*
X023558Y019390D01*
X023495Y019237D01*
X023495Y019071D01*
X023558Y018917D01*
X023676Y018800D01*
X023772Y018760D01*
X023676Y018720D01*
X023558Y018603D01*
X023495Y018450D01*
X023495Y018283D01*
X023558Y018130D01*
X023676Y018013D01*
X023772Y017973D01*
X023676Y017933D01*
X023558Y017816D01*
X023495Y017662D01*
X023495Y017496D01*
X023558Y017343D01*
X023676Y017225D01*
X023772Y017185D01*
X023676Y017146D01*
X023558Y017028D01*
X023495Y016875D01*
X023495Y016709D01*
X023558Y016555D01*
X023676Y016438D01*
X023772Y016398D01*
X023676Y016358D01*
X023558Y016241D01*
X023495Y016087D01*
X023495Y015921D01*
X023558Y015768D01*
X023676Y015650D01*
X023772Y015611D01*
X023676Y015571D01*
X023558Y015453D01*
X023495Y015300D01*
X023495Y015134D01*
X023558Y014980D01*
X023676Y014863D01*
X023772Y014823D01*
X023676Y014783D01*
X023558Y014666D01*
X023495Y014513D01*
X023495Y014346D01*
X023558Y014193D01*
X023676Y014076D01*
X023772Y014036D01*
X023676Y013996D01*
X023558Y013879D01*
X023495Y013725D01*
X023495Y013559D01*
X023558Y013406D01*
X023676Y013288D01*
X023772Y013248D01*
X023676Y013209D01*
X023558Y013091D01*
X023495Y012938D01*
X023495Y012772D01*
X023558Y012618D01*
X023676Y012501D01*
X023772Y012461D01*
X023676Y012421D01*
X023558Y012304D01*
X023516Y012201D01*
X023237Y012480D01*
X023237Y020316D01*
X023235Y020320D01*
X023279Y020327D01*
X023354Y020351D01*
X023425Y020387D01*
X023489Y020434D01*
X023546Y020490D01*
X023592Y020555D01*
X023628Y020625D01*
X023653Y020701D01*
X023665Y020780D01*
X023665Y020819D01*
X023160Y020819D01*
X023160Y021324D01*
X023121Y021324D01*
X023042Y021312D01*
X022966Y021287D01*
X022902Y021255D01*
X022902Y022995D01*
X022915Y022986D01*
X022986Y022950D01*
X023062Y022925D01*
X023140Y022913D01*
X023180Y022913D01*
X023220Y022913D01*
X023298Y022925D01*
X023374Y022950D01*
X023445Y022986D01*
X023509Y023033D01*
X023565Y023089D01*
X023612Y023153D01*
X023648Y023224D01*
X023673Y023299D01*
X023685Y023378D01*
X023685Y023418D01*
X023685Y023457D01*
X023673Y023536D01*
X023648Y023612D01*
X023612Y023682D01*
X023565Y023747D01*
X023509Y023803D01*
X023445Y023850D01*
X023374Y023886D01*
X023298Y023910D01*
X023220Y023923D01*
X023180Y023923D01*
X023140Y023923D01*
X023062Y023910D01*
X022986Y023886D01*
X022915Y023850D01*
X022902Y023840D01*
X022902Y024072D01*
X023180Y023923D02*
X023180Y023418D01*
X023180Y023418D01*
X023180Y023923D01*
X023180Y023824D02*
X023180Y023824D01*
X023180Y023666D02*
X023180Y023666D01*
X023180Y023507D02*
X023180Y023507D01*
X023180Y023418D02*
X023685Y023418D01*
X023180Y023418D01*
X023180Y023418D01*
X023180Y022913D01*
X023180Y023418D01*
X023180Y023418D01*
X023180Y023349D02*
X023180Y023349D01*
X023180Y023190D02*
X023180Y023190D01*
X023180Y023032D02*
X023180Y023032D01*
X022902Y022873D02*
X023966Y022873D01*
X023966Y022715D02*
X022902Y022715D01*
X022902Y022556D02*
X023966Y022556D01*
X023966Y022398D02*
X022902Y022398D01*
X022902Y022239D02*
X023966Y022239D01*
X023966Y022081D02*
X022902Y022081D01*
X022902Y021922D02*
X023966Y021922D01*
X023966Y021764D02*
X022902Y021764D01*
X022902Y021605D02*
X023966Y021605D01*
X023966Y021447D02*
X022902Y021447D01*
X022902Y021288D02*
X022970Y021288D01*
X023160Y021288D02*
X023160Y021288D01*
X023160Y021324D02*
X023160Y020819D01*
X023160Y020819D01*
X023160Y020819D01*
X023665Y020819D01*
X023665Y020859D01*
X023653Y020938D01*
X023628Y021013D01*
X023592Y021084D01*
X023546Y021148D01*
X023489Y021204D01*
X023425Y021251D01*
X023354Y021287D01*
X023279Y021312D01*
X023200Y021324D01*
X023160Y021324D01*
X023160Y021130D02*
X023160Y021130D01*
X023160Y020971D02*
X023160Y020971D01*
X023351Y021288D02*
X023753Y021288D01*
X023675Y021130D02*
X023559Y021130D01*
X023642Y020971D02*
X023675Y020971D01*
X023665Y020813D02*
X023675Y020813D01*
X023675Y020654D02*
X023638Y020654D01*
X023675Y020496D02*
X023550Y020496D01*
X023766Y020337D02*
X023311Y020337D01*
X023237Y020179D02*
X024104Y020179D01*
X024104Y020020D02*
X023237Y020020D01*
X023237Y019862D02*
X024104Y019862D01*
X024104Y019703D02*
X023237Y019703D01*
X023237Y019545D02*
X023765Y019545D01*
X023557Y019386D02*
X023237Y019386D01*
X023237Y019228D02*
X023495Y019228D01*
X023495Y019069D02*
X023237Y019069D01*
X023237Y018911D02*
X023565Y018911D01*
X023753Y018752D02*
X023237Y018752D01*
X023237Y018594D02*
X023555Y018594D01*
X023495Y018435D02*
X023237Y018435D01*
X023237Y018277D02*
X023498Y018277D01*
X023570Y018118D02*
X023237Y018118D01*
X023237Y017960D02*
X023740Y017960D01*
X023552Y017801D02*
X023237Y017801D01*
X023237Y017643D02*
X023495Y017643D01*
X023500Y017484D02*
X023237Y017484D01*
X023237Y017326D02*
X023575Y017326D01*
X023728Y017167D02*
X023237Y017167D01*
X023237Y017009D02*
X023550Y017009D01*
X023495Y016850D02*
X023237Y016850D01*
X023237Y016692D02*
X023502Y016692D01*
X023580Y016533D02*
X023237Y016533D01*
X023237Y016375D02*
X023716Y016375D01*
X023548Y016216D02*
X023237Y016216D01*
X023237Y016058D02*
X023495Y016058D01*
X023504Y015899D02*
X023237Y015899D01*
X023237Y015741D02*
X023585Y015741D01*
X023703Y015582D02*
X023237Y015582D01*
X023237Y015424D02*
X023546Y015424D01*
X023495Y015265D02*
X023237Y015265D01*
X023237Y015107D02*
X023506Y015107D01*
X023591Y014948D02*
X023237Y014948D01*
X023237Y014790D02*
X023691Y014790D01*
X023544Y014631D02*
X023237Y014631D01*
X023237Y014473D02*
X023495Y014473D01*
X023508Y014314D02*
X023237Y014314D01*
X023237Y014156D02*
X023596Y014156D01*
X023679Y013997D02*
X023237Y013997D01*
X023237Y013839D02*
X023542Y013839D01*
X023495Y013680D02*
X023237Y013680D01*
X023237Y013522D02*
X023510Y013522D01*
X023601Y013363D02*
X023237Y013363D01*
X023237Y013205D02*
X023672Y013205D01*
X023540Y013046D02*
X023237Y013046D01*
X023237Y012888D02*
X023495Y012888D01*
X023512Y012729D02*
X023237Y012729D01*
X023237Y012571D02*
X023606Y012571D01*
X023667Y012412D02*
X023305Y012412D01*
X023463Y012254D02*
X023538Y012254D01*
X022921Y011778D02*
X022073Y011778D01*
X022136Y011841D02*
X022214Y012029D01*
X022214Y012232D01*
X022136Y012419D01*
X021993Y012563D01*
X021829Y012630D01*
X021993Y012698D01*
X022136Y012841D01*
X022214Y013029D01*
X022214Y013232D01*
X022136Y013419D01*
X021993Y013563D01*
X021829Y013630D01*
X021993Y013698D01*
X022136Y013841D01*
X022214Y014029D01*
X022214Y014232D01*
X022136Y014419D01*
X021993Y014563D01*
X021829Y014630D01*
X021993Y014698D01*
X022136Y014841D01*
X022214Y015029D01*
X022214Y015232D01*
X022136Y015419D01*
X021993Y015563D01*
X021829Y015630D01*
X021993Y015698D01*
X022136Y015841D01*
X022214Y016029D01*
X022214Y016232D01*
X022136Y016419D01*
X021993Y016563D01*
X021829Y016630D01*
X021993Y016698D01*
X022136Y016841D01*
X022214Y017029D01*
X022214Y017232D01*
X022136Y017419D01*
X021993Y017563D01*
X021829Y017630D01*
X021993Y017698D01*
X022136Y017841D01*
X022214Y018029D01*
X022214Y018232D01*
X022136Y018419D01*
X021993Y018563D01*
X021829Y018630D01*
X021993Y018698D01*
X022136Y018841D01*
X022214Y019029D01*
X022214Y019232D01*
X022136Y019419D01*
X021993Y019563D01*
X021829Y019630D01*
X021993Y019698D01*
X022136Y019841D01*
X022214Y020029D01*
X022214Y020232D01*
X022136Y020419D01*
X021993Y020563D01*
X021829Y020630D01*
X021993Y020698D01*
X022136Y020841D01*
X022182Y020953D01*
X022182Y020508D01*
X022237Y020375D01*
X022338Y020274D01*
X022517Y020095D01*
X022517Y012259D01*
X022572Y012127D01*
X022673Y012026D01*
X023521Y011178D01*
X023521Y010274D01*
X023341Y010349D01*
X023138Y010349D01*
X022950Y010271D01*
X022807Y010128D01*
X022729Y009940D01*
X022729Y009738D01*
X022807Y009550D01*
X022950Y009407D01*
X023113Y009339D01*
X022950Y009271D01*
X022807Y009128D01*
X022729Y008940D01*
X022729Y008738D01*
X022807Y008550D01*
X022891Y008466D01*
X022891Y008225D01*
X022877Y008211D01*
X022807Y008041D01*
X022807Y007339D01*
X022747Y007339D01*
X022747Y007630D01*
X022287Y007630D01*
X022287Y007670D01*
X022747Y007670D01*
X022747Y007988D01*
X022735Y008062D01*
X022711Y008134D01*
X022677Y008202D01*
X022633Y008263D01*
X022579Y008316D01*
X022518Y008361D01*
X022451Y008395D01*
X022379Y008418D01*
X022304Y008430D01*
X022287Y008430D01*
X022287Y007670D01*
X022247Y007670D01*
X022247Y008430D01*
X022229Y008430D01*
X022154Y008418D01*
X022082Y008395D01*
X022015Y008361D01*
X021954Y008316D01*
X021900Y008263D01*
X021856Y008202D01*
X021822Y008134D01*
X021798Y008062D01*
X021787Y007988D01*
X021787Y007670D01*
X022247Y007670D01*
X022247Y007630D01*
X021787Y007630D01*
X021787Y007339D01*
X021727Y007339D01*
X021727Y008041D01*
X021657Y008211D01*
X021527Y008340D01*
X021358Y008410D01*
X021288Y008410D01*
X021288Y008825D01*
X021415Y008698D01*
X021602Y008620D01*
X021805Y008620D01*
X021993Y008698D01*
X022136Y008841D01*
X022214Y009029D01*
X022214Y009232D01*
X022136Y009419D01*
X021993Y009563D01*
X021829Y009630D01*
X021993Y009698D01*
X022136Y009841D01*
X022214Y010029D01*
X022214Y010232D01*
X022136Y010419D01*
X021993Y010563D01*
X021829Y010630D01*
X021993Y010698D01*
X022136Y010841D01*
X022214Y011029D01*
X022214Y011232D01*
X022136Y011419D01*
X021993Y011563D01*
X021829Y011630D01*
X021993Y011698D01*
X022136Y011841D01*
X022175Y011937D02*
X022762Y011937D01*
X022604Y012095D02*
X022214Y012095D01*
X022204Y012254D02*
X022519Y012254D01*
X022517Y012412D02*
X022139Y012412D01*
X021973Y012571D02*
X022517Y012571D01*
X022517Y012729D02*
X022024Y012729D01*
X022155Y012888D02*
X022517Y012888D01*
X022517Y013046D02*
X022214Y013046D01*
X022214Y013205D02*
X022517Y013205D01*
X022517Y013363D02*
X022159Y013363D01*
X022033Y013522D02*
X022517Y013522D01*
X022517Y013680D02*
X021950Y013680D01*
X022133Y013839D02*
X022517Y013839D01*
X022517Y013997D02*
X022201Y013997D01*
X022214Y014156D02*
X022517Y014156D01*
X022517Y014314D02*
X022179Y014314D01*
X022082Y014473D02*
X022517Y014473D01*
X022517Y014631D02*
X021832Y014631D01*
X022084Y014790D02*
X022517Y014790D01*
X022517Y014948D02*
X022180Y014948D01*
X022214Y015107D02*
X022517Y015107D01*
X022517Y015265D02*
X022200Y015265D01*
X022131Y015424D02*
X022517Y015424D01*
X022517Y015582D02*
X021945Y015582D01*
X022035Y015741D02*
X022517Y015741D01*
X022517Y015899D02*
X022160Y015899D01*
X022214Y016058D02*
X022517Y016058D01*
X022517Y016216D02*
X022214Y016216D01*
X022154Y016375D02*
X022517Y016375D01*
X022517Y016533D02*
X022022Y016533D01*
X021978Y016692D02*
X022517Y016692D01*
X022517Y016850D02*
X022140Y016850D01*
X022205Y017009D02*
X022517Y017009D01*
X022517Y017167D02*
X022214Y017167D01*
X022175Y017326D02*
X022517Y017326D01*
X022517Y017484D02*
X022071Y017484D01*
X021859Y017643D02*
X022517Y017643D01*
X022517Y017801D02*
X022096Y017801D01*
X022185Y017960D02*
X022517Y017960D01*
X022517Y018118D02*
X022214Y018118D01*
X022195Y018277D02*
X022517Y018277D01*
X022517Y018435D02*
X022120Y018435D01*
X021917Y018594D02*
X022517Y018594D01*
X022517Y018752D02*
X022047Y018752D01*
X022165Y018911D02*
X022517Y018911D01*
X022517Y019069D02*
X022214Y019069D01*
X022214Y019228D02*
X022517Y019228D01*
X022517Y019386D02*
X022150Y019386D01*
X022010Y019545D02*
X022517Y019545D01*
X022517Y019703D02*
X021998Y019703D01*
X022144Y019862D02*
X022517Y019862D01*
X022517Y020020D02*
X022210Y020020D01*
X022214Y020179D02*
X022433Y020179D01*
X022275Y020337D02*
X022170Y020337D01*
X022187Y020496D02*
X022059Y020496D01*
X022182Y020654D02*
X021887Y020654D01*
X022107Y020813D02*
X022182Y020813D01*
X024060Y019545D02*
X024104Y019545D01*
X019587Y017326D02*
X019546Y017326D01*
X019587Y017167D02*
X019388Y017167D01*
X019229Y017009D02*
X019580Y017009D01*
X019422Y016850D02*
X019071Y016850D01*
X018912Y016692D02*
X019263Y016692D01*
X019105Y016533D02*
X018827Y016533D01*
X018787Y016375D02*
X018946Y016375D01*
X018788Y016216D02*
X018618Y016216D01*
X018629Y016058D02*
X018401Y016058D01*
X018471Y015899D02*
X018267Y015899D01*
X016936Y016375D02*
X016936Y016375D01*
X016936Y016533D02*
X016936Y016533D01*
X016936Y016692D02*
X016936Y016692D01*
X016745Y016692D02*
X016492Y016692D01*
X016492Y016533D02*
X016646Y016533D01*
X016646Y016375D02*
X016492Y016375D01*
X016492Y016216D02*
X016646Y016216D01*
X016646Y016058D02*
X016492Y016058D01*
X016492Y015899D02*
X016586Y015899D01*
X016498Y015741D02*
X016492Y015741D01*
X016492Y015582D02*
X016495Y015582D01*
X015674Y015265D02*
X015668Y015265D01*
X015657Y015107D02*
X015738Y015107D01*
X015738Y014948D02*
X015573Y014948D01*
X015472Y014790D02*
X015738Y014790D01*
X015738Y014631D02*
X015619Y014631D01*
X015668Y014473D02*
X015738Y014473D01*
X015738Y014314D02*
X015655Y014314D01*
X015738Y014156D02*
X015568Y014156D01*
X015484Y013997D02*
X015738Y013997D01*
X015738Y013839D02*
X015621Y013839D01*
X015668Y013680D02*
X015738Y013680D01*
X015738Y013522D02*
X015653Y013522D01*
X015738Y013363D02*
X015562Y013363D01*
X015491Y013205D02*
X015738Y013205D01*
X015738Y013046D02*
X015623Y013046D01*
X015668Y012888D02*
X015738Y012888D01*
X015738Y012729D02*
X015651Y012729D01*
X015738Y012571D02*
X015557Y012571D01*
X015520Y012412D02*
X015738Y012412D01*
X015738Y012254D02*
X015647Y012254D01*
X015688Y012095D02*
X015738Y012095D01*
X015738Y011937D02*
X015668Y011937D01*
X015738Y011778D02*
X015581Y011778D01*
X015738Y011620D02*
X012855Y011620D01*
X013073Y011778D02*
X014921Y011778D01*
X014833Y011937D02*
X013175Y011937D01*
X013214Y012095D02*
X014813Y012095D01*
X014855Y012254D02*
X013204Y012254D01*
X013139Y012412D02*
X014981Y012412D01*
X014944Y012571D02*
X012973Y012571D01*
X013024Y012729D02*
X014851Y012729D01*
X014833Y012888D02*
X013155Y012888D01*
X013214Y013046D02*
X014878Y013046D01*
X015011Y013205D02*
X013214Y013205D01*
X013159Y013363D02*
X014939Y013363D01*
X014849Y013522D02*
X013033Y013522D01*
X012950Y013680D02*
X013705Y013680D01*
X013547Y013839D02*
X013133Y013839D01*
X013201Y013997D02*
X013497Y013997D01*
X013338Y014156D02*
X013214Y014156D01*
X013179Y014314D02*
X013180Y014314D01*
X013881Y014631D02*
X014883Y014631D01*
X014833Y014473D02*
X014040Y014473D01*
X014315Y014314D02*
X014847Y014314D01*
X014934Y014156D02*
X014427Y014156D01*
X014427Y013997D02*
X015017Y013997D01*
X014880Y013839D02*
X014427Y013839D01*
X014270Y013680D02*
X014833Y013680D01*
X015030Y014790D02*
X013768Y014790D01*
X013768Y014948D02*
X014929Y014948D01*
X014845Y015107D02*
X013768Y015107D01*
X013768Y015265D02*
X014833Y015265D01*
X014885Y015424D02*
X013768Y015424D01*
X013768Y015582D02*
X015042Y015582D01*
X014924Y015741D02*
X013768Y015741D01*
X013768Y015899D02*
X014842Y015899D01*
X014833Y016058D02*
X013768Y016058D01*
X013768Y016216D02*
X014887Y016216D01*
X015054Y016375D02*
X013768Y016375D01*
X013768Y016533D02*
X014919Y016533D01*
X014840Y016692D02*
X014309Y016692D01*
X014447Y016850D02*
X014833Y016850D01*
X014889Y017009D02*
X014447Y017009D01*
X014447Y017030D02*
X014447Y017211D01*
X014178Y017480D01*
X013997Y017480D01*
X013997Y017030D01*
X014447Y017030D01*
X014447Y017167D02*
X015067Y017167D01*
X014914Y017326D02*
X014332Y017326D01*
X013997Y017326D02*
X013977Y017326D01*
X013977Y017167D02*
X013997Y017167D01*
X013997Y017009D02*
X013977Y017009D01*
X013977Y016850D02*
X013997Y016850D01*
X013997Y016692D02*
X013977Y016692D01*
X013768Y017484D02*
X014838Y017484D01*
X014833Y017643D02*
X013768Y017643D01*
X013768Y017801D02*
X014891Y017801D01*
X015079Y017960D02*
X013768Y017960D01*
X013768Y018118D02*
X014909Y018118D01*
X014836Y018277D02*
X013768Y018277D01*
X013768Y018435D02*
X014833Y018435D01*
X014893Y018594D02*
X013768Y018594D01*
X013768Y018752D02*
X015091Y018752D01*
X014904Y018911D02*
X013768Y018911D01*
X013768Y019069D02*
X014834Y019069D01*
X014833Y019228D02*
X013768Y019228D01*
X013768Y019386D02*
X014895Y019386D01*
X015104Y019545D02*
X013768Y019545D01*
X015251Y011937D02*
X015251Y011937D01*
X015251Y011778D02*
X015251Y011778D01*
X015738Y011461D02*
X013094Y011461D01*
X013184Y011303D02*
X014332Y011303D01*
X014320Y011301D02*
X014240Y011275D01*
X014166Y011237D01*
X014099Y011188D01*
X014040Y011129D01*
X013990Y011062D01*
X013953Y010987D01*
X013927Y010908D01*
X013914Y010826D01*
X013914Y010802D01*
X014425Y010802D01*
X014425Y011314D01*
X014402Y011314D01*
X014320Y011301D01*
X014425Y011303D02*
X014462Y011303D01*
X014555Y011303D02*
X015738Y011303D01*
X015083Y011144D02*
X014833Y011144D01*
X014935Y010986D02*
X014975Y010986D01*
X015005Y010510D02*
X014899Y010510D01*
X014751Y010352D02*
X015115Y010352D01*
X015115Y010193D02*
X014684Y010193D01*
X014462Y010193D02*
X014425Y010193D01*
X014425Y010251D02*
X014402Y010251D01*
X014320Y010238D01*
X014240Y010212D01*
X014166Y010174D01*
X014099Y010125D01*
X014040Y010066D01*
X013990Y009999D01*
X013953Y009924D01*
X013927Y009845D01*
X013914Y009763D01*
X013914Y009739D01*
X014425Y009739D01*
X014425Y010251D01*
X014425Y010254D02*
X014425Y010765D01*
X013914Y010765D01*
X013914Y010742D01*
X013927Y010660D01*
X013953Y010580D01*
X013990Y010506D01*
X014040Y010439D01*
X014099Y010380D01*
X014166Y010331D01*
X014240Y010293D01*
X014320Y010267D01*
X014402Y010254D01*
X014425Y010254D01*
X014425Y010352D02*
X014462Y010352D01*
X014462Y010510D02*
X014425Y010510D01*
X014425Y010669D02*
X014462Y010669D01*
X014462Y010827D02*
X014425Y010827D01*
X014425Y010986D02*
X014462Y010986D01*
X014462Y011144D02*
X014425Y011144D01*
X014055Y011144D02*
X013214Y011144D01*
X013196Y010986D02*
X013952Y010986D01*
X013914Y010827D02*
X013122Y010827D01*
X012922Y010669D02*
X013925Y010669D01*
X013988Y010510D02*
X013045Y010510D01*
X013164Y010352D02*
X014137Y010352D01*
X014204Y010193D02*
X013214Y010193D01*
X013214Y010035D02*
X014017Y010035D01*
X013937Y009876D02*
X013150Y009876D01*
X013012Y009718D02*
X014425Y009718D01*
X014425Y009876D02*
X014462Y009876D01*
X014462Y010035D02*
X014425Y010035D01*
X014871Y010035D02*
X015036Y010035D01*
X014956Y009876D02*
X014951Y009876D01*
X014949Y009559D02*
X014959Y009559D01*
X015043Y009401D02*
X014866Y009401D01*
X014672Y009242D02*
X015115Y009242D01*
X015115Y009084D02*
X014759Y009084D01*
X014902Y008925D02*
X015003Y008925D01*
X014462Y009401D02*
X014425Y009401D01*
X014425Y009559D02*
X014462Y009559D01*
X014021Y009401D02*
X013144Y009401D01*
X012996Y009559D02*
X013939Y009559D01*
X014933Y008450D02*
X014978Y008450D01*
X015089Y008291D02*
X014827Y008291D01*
X017142Y010035D02*
X017678Y010035D01*
X017865Y010193D02*
X017142Y010193D01*
X017142Y010352D02*
X017798Y010352D01*
X017650Y010510D02*
X017142Y010510D01*
X017142Y010669D02*
X017587Y010669D01*
X017575Y010827D02*
X017142Y010827D01*
X017142Y010986D02*
X017614Y010986D01*
X017716Y011144D02*
X017142Y011144D01*
X018087Y009559D02*
X018124Y009559D01*
X018124Y009401D02*
X018087Y009401D01*
X018087Y009242D02*
X018124Y009242D01*
X018124Y009084D02*
X018087Y009084D01*
X018087Y008925D02*
X018124Y008925D01*
X018124Y008767D02*
X018087Y008767D01*
X018087Y008608D02*
X018124Y008608D01*
X018124Y008450D02*
X018087Y008450D01*
X018087Y008291D02*
X018124Y008291D01*
X018178Y008133D02*
X018757Y008133D01*
X018751Y008291D02*
X018488Y008291D01*
X018594Y008450D02*
X018639Y008450D01*
X018757Y007974D02*
X018475Y007974D01*
X018587Y007816D02*
X018645Y007816D01*
X018664Y008925D02*
X018564Y008925D01*
X018421Y009084D02*
X018777Y009084D01*
X018777Y009242D02*
X018333Y009242D01*
X018528Y009401D02*
X018704Y009401D01*
X018620Y009559D02*
X018610Y009559D01*
X021288Y008767D02*
X021346Y008767D01*
X021288Y008608D02*
X022783Y008608D01*
X022729Y008767D02*
X022061Y008767D01*
X022171Y008925D02*
X022729Y008925D01*
X022788Y009084D02*
X022214Y009084D01*
X022209Y009242D02*
X022921Y009242D01*
X022964Y009401D02*
X022144Y009401D01*
X021996Y009559D02*
X022803Y009559D01*
X022737Y009718D02*
X022012Y009718D01*
X022150Y009876D02*
X022729Y009876D01*
X022768Y010035D02*
X022214Y010035D01*
X022214Y010193D02*
X022872Y010193D01*
X023521Y010352D02*
X022164Y010352D01*
X022045Y010510D02*
X023521Y010510D01*
X023521Y010669D02*
X021922Y010669D01*
X022122Y010827D02*
X023521Y010827D01*
X023521Y010986D02*
X022196Y010986D01*
X022214Y011144D02*
X023521Y011144D01*
X023396Y011303D02*
X022184Y011303D01*
X022094Y011461D02*
X023238Y011461D01*
X023079Y011620D02*
X021855Y011620D01*
X021288Y008450D02*
X022891Y008450D01*
X022891Y008291D02*
X022604Y008291D01*
X022712Y008133D02*
X022844Y008133D01*
X022807Y007974D02*
X022747Y007974D01*
X022747Y007816D02*
X022807Y007816D01*
X022807Y007657D02*
X022287Y007657D01*
X022247Y007657D02*
X021727Y007657D01*
X021727Y007499D02*
X021787Y007499D01*
X021787Y007340D02*
X021727Y007340D01*
X021727Y007816D02*
X021787Y007816D01*
X021787Y007974D02*
X021727Y007974D01*
X021689Y008133D02*
X021821Y008133D01*
X021929Y008291D02*
X021576Y008291D01*
X022247Y008291D02*
X022287Y008291D01*
X022287Y008133D02*
X022247Y008133D01*
X022247Y007974D02*
X022287Y007974D01*
X022287Y007816D02*
X022247Y007816D01*
X022747Y007499D02*
X022807Y007499D01*
X022807Y007340D02*
X022747Y007340D01*
X023508Y023032D02*
X023695Y023032D01*
X023695Y023190D02*
X023631Y023190D01*
X023680Y023349D02*
X023695Y023349D01*
X023695Y023507D02*
X023677Y023507D01*
X023695Y023666D02*
X023620Y023666D01*
X023710Y023824D02*
X023480Y023824D01*
X023764Y024934D02*
X024472Y024934D01*
X024472Y025092D02*
X023923Y025092D01*
X024081Y025251D02*
X024472Y025251D01*
X024472Y027787D02*
X022081Y027787D01*
X022179Y027945D02*
X024472Y027945D01*
X024472Y028104D02*
X022214Y028104D01*
X022201Y028262D02*
X024472Y028262D01*
X012326Y027787D02*
X012117Y027787D01*
X012117Y027945D02*
X012228Y027945D01*
X012194Y028104D02*
X012117Y028104D01*
X012117Y028262D02*
X012206Y028262D01*
D23*
X016129Y028004D02*
X016145Y028000D01*
X016145Y026170D01*
X016129Y026122D01*
X016145Y026111D01*
X016145Y024280D01*
X016129Y024241D01*
X016145Y024241D01*
X016145Y022370D01*
X016129Y022359D01*
X019865Y022359D02*
X019865Y024241D01*
X019904Y024142D01*
X021696Y024142D01*
X021704Y024130D01*
X019865Y024241D02*
X019865Y026122D01*
X019865Y028004D01*
X024180Y023418D02*
X024176Y023414D01*
X024176Y020855D01*
X024160Y020819D01*
X024176Y020815D01*
X024314Y020678D01*
X024314Y014831D01*
X023912Y014430D01*
X021704Y014130D02*
X021696Y014142D01*
X021696Y014181D01*
X020751Y014181D01*
X020003Y014181D02*
X019570Y013748D01*
X019570Y013650D01*
X020003Y013119D02*
X020593Y012528D01*
X020593Y008079D01*
X020121Y007607D01*
X020105Y007595D01*
X020105Y008658D02*
X020101Y008670D01*
X019609Y009162D01*
X019609Y012193D01*
X019235Y012567D01*
X019235Y014359D01*
X020003Y015126D01*
X020751Y015126D02*
X021696Y015126D01*
X021704Y015130D01*
X021696Y016130D02*
X021704Y016130D01*
X021696Y016130D02*
X021696Y016189D01*
X020751Y016189D01*
X020003Y016189D02*
X018960Y015146D01*
X018960Y012370D01*
X017680Y012095D02*
X016932Y011347D01*
X016932Y009142D01*
X016460Y008670D01*
X016444Y008658D01*
X016444Y009721D02*
X016440Y009733D01*
X015948Y010225D01*
X015948Y015500D01*
X016282Y015382D02*
X016282Y018119D01*
X015259Y019142D01*
X015251Y019154D01*
X018074Y018158D02*
X018074Y016209D01*
X017700Y016307D02*
X017700Y016878D01*
X017700Y016307D02*
X017680Y016288D01*
X017676Y016271D01*
X018467Y016544D02*
X020003Y018079D01*
X020751Y018079D02*
X021696Y018079D01*
X021696Y018119D01*
X021704Y018130D01*
X021696Y017134D02*
X020751Y017134D01*
X020003Y017134D02*
X018625Y015756D01*
X018625Y010363D01*
X016460Y010796D02*
X016444Y010784D01*
X016460Y010796D02*
X016460Y013020D01*
X017129Y013689D01*
X017129Y015382D01*
X016853Y015658D01*
X016282Y015382D02*
X016637Y015028D01*
X016645Y015028D01*
X018074Y018158D02*
X020003Y020087D01*
X020475Y019615D02*
X021282Y019615D01*
X021696Y020087D02*
X021696Y020126D01*
X021704Y020130D01*
X021696Y020087D02*
X020751Y020087D01*
X020475Y019615D02*
X020003Y019142D01*
X020751Y019142D02*
X021696Y019142D01*
X021704Y019130D01*
X021696Y017134D02*
X021704Y017130D01*
X021704Y013130D02*
X021696Y013119D01*
X020751Y013119D01*
M02*
